<svg id="Layer_1" data-name="Layer 1" xmlns="http://www.w3.org/2000/svg" xmlns:xlink="http://www.w3.org/1999/xlink" viewBox="0 0 317.82 81.13"><defs><style>.cls-1{opacity:0.95;}.cls-2{fill:#308ace;}.cls-3{fill:#e84646;}.cls-4{fill:#752323;}.cls-5{fill:#42a1db;}.cls-6{fill:#0f4d84;}.cls-7{fill:#073a68;}.cls-8{fill:#87b4dd;}.cls-9{fill:url(#radial-gradient);}.cls-10{fill:url(#radial-gradient-2);}.cls-11{fill:#770c0c;}</style><radialGradient id="radial-gradient" cx="-60.87" cy="253.06" r="0.12" gradientTransform="translate(1269.63 -4717.27) scale(18.39 19.04)" gradientUnits="userSpaceOnUse"><stop offset="0" stop-color="#fff"/><stop offset="0.67" stop-color="#fff" stop-opacity="0.1"/></radialGradient><radialGradient id="radial-gradient-2" cx="-60.04" cy="252.99" r="0.64" gradientTransform="translate(1269.63 -4717.27) scale(18.39 19.04)" gradientUnits="userSpaceOnUse"><stop offset="0.23" stop-color="#fff" stop-opacity="0.1"/><stop offset="0.36" stop-color="#fff" stop-opacity="0.12"/><stop offset="0.49" stop-color="#fff" stop-opacity="0.17"/><stop offset="0.63" stop-color="#fff" stop-opacity="0.25"/><stop offset="0.77" stop-color="#fff" stop-opacity="0.36"/><stop offset="0.81" stop-color="#fff" stop-opacity="0.4"/></radialGradient></defs><title>logo-light-3-4</title><g class="cls-1"><path class="cls-2" d="M174.5,45.83s-33.28,25.06-27.59,56,35.68,24.64,35.68,24.64,4.09-.89,4.21-2.9a4.82,4.82,0,0,0-.87-3.18s-4-5.15-6.48-7.87-19.84-20.74-16-32.76l-3.14-2.24s-8.23,11.23-1.94,29.14C158.33,106.63,137.78,84.56,174.5,45.83Z" transform="translate(-146.15 -45.83)"/><path class="cls-3" d="M168.36,65s-9.36,22.51,6.37,37.75,14.15,20.59,14.15,20.59S202,119,190.7,103.54,170.73,79.68,168.36,65Z" transform="translate(-146.15 -45.83)"/><path class="cls-4" d="M167.09,69s.28,8.45,18.09,27.25c0,0-15.09-19.17-16.82-31.23l-.71,2L167.09,69" transform="translate(-146.15 -45.83)"/><path class="cls-5" d="M160.27,77.49s-5.09,17,17.5,33.19c0,0-20.2,13.85-30.25-6.09,0,0-2-7.48-.37-18.5,0,0-1.55,18.24,11.18,20.54C158.33,106.63,152,88.8,160.27,77.49Z" transform="translate(-146.15 -45.83)"/><path class="cls-6" d="M163.41,79.73l-3.14-2.24s-5.32,17.19,17.5,33.19C177.77,110.68,160,92.87,163.41,79.73Z" transform="translate(-146.15 -45.83)"/><path class="cls-7" d="M174.5,45.83S150.37,64,147.15,86.09c0,0-2.53,18.24,11.18,20.54C158.33,106.63,137.81,84.75,174.5,45.83Z" transform="translate(-146.15 -45.83)"/><path class="cls-5" d="M149.88,108.45s-6-5.35-2.73-22.36c0,0-1.43,14,5.68,18.28Z" transform="translate(-146.15 -45.83)"/><path class="cls-8" d="M147.18,92.3s.24,11.79,9.39,13.92A21.49,21.49,0,0,1,147.18,92.3Z" transform="translate(-146.15 -45.83)"/><path class="cls-9" d="M149.27,98.25a16.18,16.18,0,0,0,3.15,4.45l-.75.78s-1.73-1.16-3.08-4.64Z" transform="translate(-146.15 -45.83)"/><path class="cls-10" d="M160.27,77.49s-5.21,17.89,17.5,33.19C177.77,110.68,160.2,98,160.27,77.49Z" transform="translate(-146.15 -45.83)"/><path class="cls-11" d="M185.65,90.69,191.91,97S192.41,90.48,185.65,90.69Z" transform="translate(-146.15 -45.83)"/><path class="cls-7" d="M184.15,90.31l7,8.75a5.91,5.91,0,0,0-7-8.75Z" transform="translate(-146.15 -45.83)"/><path class="cls-7" d="M197.55,104.79h0c.06-.08.13-.17.18-.25h0c.57-.89.46-1.62-.36-2.58a11.88,11.88,0,0,0-.86-1,1.36,1.36,0,0,1-.34-1.59,6.57,6.57,0,0,0,.48-3.71c-.35-1.46.45-2.23,1.39-3.05,1.43-1.23,1.47-1.81.45-3.45-.16-.25-.31-.5-.48-.74-.94-1.38-1.16-1.46-2.68-.85l-1.3.53a.91.91,0,0,1-1.15-.21,7,7,0,0,0-3.82-2,2.44,2.44,0,0,1-2-1.83c-.17-.41-.34-.82-.53-1.22s-.27-.57-.58-.63a4.64,4.64,0,0,0-3.44.63c-.78.51-.21,1.42-.21,2.15,0,.08,0,.15,0,.22s0,1.2-.4,1.47l1.6,2.61A7.4,7.4,0,0,1,186,89l.35,0c3.95-.13,7.75,4.32,6.59,9.1a.83.83,0,0,0,0,.15h0a6.38,6.38,0,0,1-1,1.73L196,106.3l.38-.39,0,0,.66-.66a.64.64,0,0,0,.27-.22,1.46,1.46,0,0,0,.16-.21Z" transform="translate(-146.15 -45.83)"/><path class="cls-7" d="M207.22,96.08c.45,0,.71-.24.56-.8a2.66,2.66,0,0,1,0-.89c.11-.87-.23-1.31-1.08-1.16-.6.1-.77-.15-.77-.72a3.28,3.28,0,0,0-.19-1c-.23-.64-.09-1,.59-1.11.51-.09.74-.4.5-1a13,13,0,0,1-.43-1.38c-.12-.4-.34-.59-.72-.39-.91.47-1.32,0-1.54-.84-.11-.41-.81-.93-.18-1.24,1.36-.67.57-1.33.16-2.06s-.86-1.26-1.68-.48c-.37.35-.7.14-.91-.2-.32-.54-1.36-1-.88-1.58,1-1.19,0-1.52-.58-2-.29-.27-.66-1-1-.54-1,1.14-1.61.25-2.37-.22-.45-.27-.67-.58-.32-1.07s.1-.86-.39-1.08a10.64,10.64,0,0,1-1.07-.53c-.55-.34-.95-.27-1.18.39-.12.32-.27.72-.67.46-.56-.36-1.73-.05-1.68-.88.11-1.64-1-1.41-1.84-1.61-.57-.14-1,0-1,.73,0,.36-.13.7-.55.69a6.83,6.83,0,0,1-1.69-.16c-.49-.13-.29-.69-.38-1.06a.57.57,0,0,0-.64-.48c-.5,0-1,0-1.5,0s-.94.24-.69,1a.66.66,0,0,1-.71.94c-.55,0-1.36.81-1.63-.29-.23-.93-.71-.85-1.35-.64-.38.12-.76.25-1.14.33-.55.12-.62.43-.39.9s.39.79.13,1.13l-1,.4,1.45,3.6,2.08-.91a16.05,16.05,0,0,1,9.31-.57c.71.16.92.47.64,1.16s-.61,1.52-.87,2.29c-.5,1.49-.48,1.48.92,2a7,7,0,0,1,1.63.85c.57.43.78.29,1-.32.4-1.08.87-2.13,1.3-3.2.21-.51.41-.66.94-.28a17.28,17.28,0,0,1,7.28,13.54,1.29,1.29,0,0,1-1,.07,16,16,0,0,0-3.06-.54c-.71-.08-1,.23-.84.87a6.33,6.33,0,0,1-.28,2.64c-.16.7.07.86.64.93,1.11.14,2.21.33,3.32.43.72.07,1,.23.77,1.1a14.27,14.27,0,0,1-2.48,5.28,7.44,7.44,0,0,0-.66,1,11.87,11.87,0,0,1-1.61,2s.92,2.4.46,3.48c0,0,0,.13,1.08-.85l.39-.4a2.12,2.12,0,0,0,.2-.21c.43-.49.79-.57,1.18,0s.86.69,1.32,0a4.16,4.16,0,0,1,.65-.74c.51-.47.45-.9-.11-1.23s-.68-.77-.18-1.31a3,3,0,0,0,.55-.82c.35-.89.87-1.1,1.64-.52.47.36.78.22,1-.32.15-.38.32-.75.5-1.11s.12-.74-.35-1-1.09-.18-.89-.73c.28-.75.06-1.86,1.15-2.16.43.1,1,.44,1.17-.19a12,12,0,0,0,.37-1.6c.05-.52-.11-.76-.63-.75a1.21,1.21,0,0,1-.73-.13,6.2,6.2,0,0,1,0-1.15.76.76,0,0,0,0-.21v0h0c0-.16,0-.32,0-.47C206.28,96.5,206.36,96,207.22,96.08Z" transform="translate(-146.15 -45.83)"/><path class="cls-7" d="M178.5,68.36h0c.66-.59,1.33-1.17,2-1.77a.92.92,0,0,1,1.39-.11c1.82,1.33,3.68,2.6,5.54,3.88,1.68,1.16,1.65,1.1,3.42-.07a1.41,1.41,0,0,0,.67-1.84,20,20,0,0,0-3.79-7.58c-.31-.37-.87-.78-.24-1.29,1.29-1-.06-1.57-.39-2.24-.47-1-1.09-.34-1.56,0a.88.88,0,0,1-1.32,0A22.76,22.76,0,0,0,182,55.92a1.16,1.16,0,0,0-1.64.11,6.62,6.62,0,0,1-1.62,1.29c-.89.45-.81,1.11-.58,1.85a5.44,5.44,0,0,0,.58,1.43.88.88,0,0,1,.12,1.06l-6.74,5.68,2,4.72.74-.62c.21,0,.42-.29.59-.43,1-.84,1.93-1.67,2.89-2.52Z" transform="translate(-146.15 -45.83)"/></g><path class="cls-7" d="M220.89,77.26h6l6.91,21.51h-5.27l-2.88-10.89c-.61-2.15-1.2-4.7-1.79-6.94h-.13c-.53,2.27-1.12,4.79-1.73,6.94l-2.9,10.89H214Zm-2.36,12.61h10.6v3.78h-10.6Z" transform="translate(-146.15 -45.83)"/><path class="cls-7" d="M232.22,77.26h5.11l1.52,10c.29,2.27.61,4.53.9,6.8h.14c.43-2.27.87-4.56,1.31-6.8l2.37-10h4.22l2.37,10c.44,2.18.88,4.51,1.32,6.8h.14c.29-2.29.59-4.59.88-6.8l1.53-10h4.76l-3.91,21.51h-6.26L246.46,89c-.35-1.66-.64-3.38-.88-5h-.14c-.26,1.61-.54,3.33-.89,5l-2.09,9.77h-6.14Z" transform="translate(-146.15 -45.83)"/><path class="cls-7" d="M267,77.26h13.9v4.08h-8.92v5h7.62v4.08h-7.62v8.36h-5Z" transform="translate(-146.15 -45.83)"/><path class="cls-7" d="M282.71,88.8V77.26h5v12c0,4.21,1.36,5.67,3.83,5.67s3.9-1.46,3.9-5.67v-12h4.8V88.8c0,7.23-3,10.37-8.7,10.37S282.71,96,282.71,88.8Z" transform="translate(-146.15 -45.83)"/><path class="cls-7" d="M304.13,77.26h13.8v4.08h-8.82v4.32h7.51v4.08h-7.51v5h9.16v4.08H304.13Z" transform="translate(-146.15 -45.83)"/><path class="cls-7" d="M321.37,77.26h5V94.69H335v4.08H321.37Z" transform="translate(-146.15 -45.83)"/><path class="cls-7" d="M348,81.34h-6.06V77.26H359v4.08H353V98.77h-5Z" transform="translate(-146.15 -45.83)"/><path class="cls-7" d="M361.25,77.26h7.94c4.67,0,8.5,1.58,8.5,6.7,0,4.94-3.83,7.07-8.5,7.07h-3v7.74h-5Zm7.53,9.91c2.62,0,4-1.09,4-3.21s-1.41-2.84-4-2.84h-2.55v6Zm-.5,2.58,3.44-3.11,7,12.13h-5.57Z" transform="translate(-146.15 -45.83)"/><path class="cls-7" d="M383.4,77.26h6l6.92,21.51H391l-2.88-10.89c-.62-2.15-1.2-4.7-1.79-6.94h-.14c-.53,2.27-1.12,4.79-1.73,6.94l-2.89,10.89h-5.09Zm-2.35,12.61h10.59v3.78H381.05Z" transform="translate(-146.15 -45.83)"/><path class="cls-7" d="M396.88,77.26h6.23c6.72,0,11.06,3.27,11.06,10.66s-4.34,10.85-10.78,10.85h-6.51Zm5.92,17.6c3.74,0,6.26-1.79,6.26-6.94s-2.52-6.74-6.26-6.74h-.94V94.86Z" transform="translate(-146.15 -45.83)"/><path class="cls-7" d="M417.16,77.26h5V98.77h-5Z" transform="translate(-146.15 -45.83)"/><path class="cls-7" d="M425,77.26h5.11L435.85,88,438,92.69h.14c-.24-2.28-.64-5.29-.64-7.83v-7.6h4.74V98.77h-5.1l-5.75-10.72-2.17-4.7h-.14c.24,2.37.64,5.25.64,7.79v7.63H425Z" transform="translate(-146.15 -45.83)"/><path class="cls-7" d="M445.32,88.14c0-7.14,4.86-11.27,10.74-11.27A9.68,9.68,0,0,1,463,79.66l-2.63,3.12a5.74,5.74,0,0,0-4.16-1.72c-3.39,0-5.79,2.61-5.79,6.92s2.05,7,6.19,7a4.06,4.06,0,0,0,2.33-.64V90.61h-3.64v-4h8.07v9.91a10.75,10.75,0,0,1-7.27,2.61C450,99.17,445.32,95.39,445.32,88.14Z" transform="translate(-146.15 -45.83)"/><path class="cls-7" d="M222.78,114.48a4.73,4.73,0,0,1-.52,1.81c-.39.86-.79,1.27-1.18,1.24l-3.19-.26h-.19a.62.62,0,0,0-.7.7v4.35a5.07,5.07,0,0,1-.22,1.35c-.19.69-.41,1-.66,1s-.31-.32-.34-1l-.25-6.44a2.58,2.58,0,0,1,.49-1.73,1.89,1.89,0,0,1,1.61-.69,1.89,1.89,0,0,1-.24-.89,2.31,2.31,0,0,1,.64-1.23q.69-.84,1.23-.84a4.55,4.55,0,0,1,2,.87C222.27,113.41,222.78,114,222.78,114.48Zm-1.49.4a4.51,4.51,0,0,0-2.43-.87c-.31,0-.47.15-.47.45a.81.81,0,0,0,.21.52c.5,0,1.39.13,2.68.3l.15,0c.12,0,.18,0,.18-.1S221.51,115,221.29,114.88Z" transform="translate(-146.15 -45.83)"/><path class="cls-7" d="M226.71,118.46a1.18,1.18,0,0,1-.35.86,1.16,1.16,0,0,1-.86.36,1.2,1.2,0,0,1-.87-.35,1.22,1.22,0,0,1-.35-.87,1.18,1.18,0,0,1,.35-.87,1.22,1.22,0,0,1,1.73,0A1.22,1.22,0,0,1,226.71,118.46Z" transform="translate(-146.15 -45.83)"/><path class="cls-7" d="M235.48,114.48a4.69,4.69,0,0,1-.51,1.81c-.4.86-.79,1.27-1.19,1.24l-3.19-.26h-.19a.62.62,0,0,0-.7.7v4.35a5.44,5.44,0,0,1-.21,1.35c-.19.69-.41,1-.67,1s-.3-.32-.33-1l-.25-6.44a2.52,2.52,0,0,1,.48-1.73,1.93,1.93,0,0,1,1.62-.69,1.8,1.8,0,0,1-.25-.89,2.34,2.34,0,0,1,.65-1.23q.69-.84,1.23-.84a4.59,4.59,0,0,1,2,.87C235,113.41,235.48,114,235.48,114.48Zm-1.48.4a4.56,4.56,0,0,0-2.43-.87q-.48,0-.48.45a.81.81,0,0,0,.21.52c.5,0,1.39.13,2.68.3l.15,0c.12,0,.19,0,.19-.1S234.21,115,234,114.88Z" transform="translate(-146.15 -45.83)"/><path class="cls-7" d="M239.41,118.46a1.18,1.18,0,0,1-.35.86,1.15,1.15,0,0,1-.86.36,1.2,1.2,0,0,1-1.21-1.22,1.21,1.21,0,0,1,2.07-.87A1.22,1.22,0,0,1,239.41,118.46Z" transform="translate(-146.15 -45.83)"/><path class="cls-7" d="M247.69,115.58a5.31,5.31,0,0,1-.52,2.74,2.75,2.75,0,0,1-2.52,1.15H243a2,2,0,0,1-1.52-.59,2.29,2.29,0,0,1-.53-1.58,6.2,6.2,0,0,1,.16-1.4q.1-.48.39-.48c.24,0,.4.24.48.73s.77.76,2.05.76c1.95,0,2.93-.21,2.93-.65s-.49-.81-1.46-1.56a4.8,4.8,0,0,0-2-1.11.6.6,0,0,0-.26.07.68.68,0,0,1-.19.08.3.3,0,0,1-.32-.34.73.73,0,0,1,.06-.26l.77-2a.4.4,0,0,1,.39-.27c.47,0,1.19.53,2.15,1.6A4.89,4.89,0,0,1,247.69,115.58Zm-3.44-6.28c.07.07.07.14,0,.22l-1,1a.15.15,0,0,1-.23,0l-1.05-1c-.08-.08-.07-.18,0-.28l1-1a.16.16,0,0,1,.26,0Z" transform="translate(-146.15 -45.83)"/><path class="cls-7" d="M251.62,118.46a1.18,1.18,0,0,1-.35.86,1.16,1.16,0,0,1-.86.36,1.2,1.2,0,0,1-.87-.35,1.22,1.22,0,0,1-.35-.87,1.18,1.18,0,0,1,.35-.87,1.22,1.22,0,0,1,1.73,0A1.22,1.22,0,0,1,251.62,118.46Z" transform="translate(-146.15 -45.83)"/><path class="cls-7" d="M268.94,116.18a4.46,4.46,0,0,1-.52,2.21,1.85,1.85,0,0,1-1.66,1.08,1.46,1.46,0,0,1-1.37-.9,1.29,1.29,0,0,1-1.18.9,2.77,2.77,0,0,1-1-.17,5.16,5.16,0,0,1-1.38,3.88,5.42,5.42,0,0,1-3.92,1.34,6.28,6.28,0,0,1-3.27-.77,3.11,3.11,0,0,1-1.56-2.82,5.49,5.49,0,0,1,.84-3.11c.15-.22.3-.33.46-.33s.19.09.19.25a1,1,0,0,1-.06.32,5.29,5.29,0,0,0-.3,1.63c0,1.52,1.25,2.29,3.73,2.29a9.87,9.87,0,0,0,2.7-.35c1.21-.34,1.81-.86,1.81-1.57,0-.5-.69-1.49-2.07-3l1.1-1.85c.08-.15.16-.22.22-.22s.14.06.22.17a12,12,0,0,0,1,1.18,1.77,1.77,0,0,0,1.15.56c.29,0,.51-.27.67-.82s.29-.81.4-.81.28.14.33.42a1.6,1.6,0,0,0,.31.78,1.71,1.71,0,0,0,1.33.43c.53,0,.79-.21.79-.64a2.6,2.6,0,0,0-.79-1.41l.94-1.28c.06-.09.11-.13.17-.13s.11.05.15.14A6.49,6.49,0,0,1,268.94,116.18Zm-1.76-4.66c.06.06.06.13,0,.21l-1,1a.13.13,0,0,1-.2,0l-.95-1-.92,1a.14.14,0,0,1-.21,0l-1-1c-.08-.08-.07-.16,0-.26l.9-.92a.16.16,0,0,1,.25,0l.91.92.91-.92a.16.16,0,0,1,.25,0Zm-1-1.93a.13.13,0,0,1,0,.21l-1,1a.13.13,0,0,1-.21,0l-1-.93c-.08-.08-.07-.17,0-.26l.9-.91a.14.14,0,0,1,.23,0Z" transform="translate(-146.15 -45.83)"/><path class="cls-7" d="M287.37,114.54a5.82,5.82,0,0,1-.46,2.47,3.83,3.83,0,0,1-1.78,1.73,11.47,11.47,0,0,1-4.84.73,18.15,18.15,0,0,1-2.8-.17q-3.18-.54-3.18-3.34a5.68,5.68,0,0,1,.38-2.26c.12-.27.26-.4.41-.4s.25.1.25.31a2.31,2.31,0,0,1,0,.39,2.63,2.63,0,0,0-.05.38,2,2,0,0,0,.69,1.71c.73.56,2.17.84,4.31.84a26.46,26.46,0,0,0,3.83-.24c1.37-.21,2.05-.52,2.05-.93s-.52-.88-1.56-1.67l1.1-2.26c.05-.11.09-.17.12-.17s.1,0,.19.09a3.06,3.06,0,0,1,.88,1A3.47,3.47,0,0,1,287.37,114.54Zm-4.67-3.25a.14.14,0,0,1,0,.21l-1,1q-.09.11-.21,0l-.94-1-.93,1a.13.13,0,0,1-.21,0l-1-1c-.08-.08-.07-.16,0-.25l.9-.93a.15.15,0,0,1,.24,0l.92.93.92-.93a.16.16,0,0,1,.25,0Z" transform="translate(-146.15 -45.83)"/><path class="cls-7" d="M292.09,119.47h-.82c-1.47,0-2.21-1.19-2.21-3.58q0-2.85-.2-6l1.51-1.07a1,1,0,0,1,.37-.2c.08,0,.11.14.11.42v6.69c0,.8.34,1.2,1,1.2h.24Z" transform="translate(-146.15 -45.83)"/><path class="cls-7" d="M297,115A4.66,4.66,0,0,1,296,118.3a4.15,4.15,0,0,1-3.19,1.17h-1.16v-2.56h1.93a6.06,6.06,0,0,0,1.41-.18c.69-.18,1-.43,1-.75-.82.09-1.4.14-1.74.14q-2,0-2-1.38a5.59,5.59,0,0,1,.5-2.2c.43-1,1-1.49,1.67-1.49a2.21,2.21,0,0,1,1.8,1A4.76,4.76,0,0,1,297,115Zm-.46-6.09c.07.07.07.13,0,.21l-1,1a.14.14,0,0,1-.22,0l-.93-1-.94.94a.13.13,0,0,1-.2,0l-1-1c-.08-.07-.07-.15,0-.25l.9-.92a.15.15,0,0,1,.24,0l.92.92.91-.92a.16.16,0,0,1,.25,0Zm-1,5.1a1.87,1.87,0,0,0-1.56-1,.73.73,0,0,0-.53.2.64.64,0,0,0-.22.51c0,.29.36.44,1.1.44A4.78,4.78,0,0,0,295.58,114Z" transform="translate(-146.15 -45.83)"/><path class="cls-7" d="M304.35,116.66a10.66,10.66,0,0,1-.66,3.81,7.65,7.65,0,0,1-1.28,2.25c-.42.49-.72.73-.9.73a21.13,21.13,0,0,1-3.07-.35c-.39-.07-.58-.23-.58-.49s.15-.27.45-.37c.56-.2.93-.35,1.1-.43q3.46-1.71,4-3.61c-.4,0-.78.06-1.12.06-2,0-3-.53-3-1.58a8.19,8.19,0,0,1,.56-2.41c.52-1.47,1.15-2.2,1.89-2.2q1.37,0,2.1,1.71A7.29,7.29,0,0,1,304.35,116.66Zm-1.47-1a1.75,1.75,0,0,0-.77-1,1.44,1.44,0,0,0-.76-.26c-.56,0-.85.27-.85.8,0,.35.58.52,1.72.52Q302.58,115.72,302.88,115.69Z" transform="translate(-146.15 -45.83)"/><path class="cls-7" d="M312.28,119.47h-.47a.46.46,0,0,1-.37-.16,6.57,6.57,0,0,1-1.76,4.69,1.85,1.85,0,0,1-.43.39,1.2,1.2,0,0,1-.55.11,12.63,12.63,0,0,1-1.89-.11c-1.05-.12-1.58-.29-1.58-.53s.23-.38.68-.56a18.48,18.48,0,0,0,2.29-1.08c1.62-.94,2.44-1.75,2.44-2.42s-.76-1.41-2.26-2.5l1.27-1.89c.08-.14.15-.21.2-.21s.14.07.25.21c.85,1,1.5,1.5,1.94,1.5h.24Z" transform="translate(-146.15 -45.83)"/><path class="cls-7" d="M323.4,119.47h-1.52a2.45,2.45,0,0,1-2.35-1,4.6,4.6,0,0,1-.34-2.12,19.72,19.72,0,0,1-2.34,1.88,6.75,6.75,0,0,1-3.68,1.24h-1.36v-2.56h1a9.11,9.11,0,0,0,3-.51,19.53,19.53,0,0,0,2.37-1.06,23.55,23.55,0,0,0-4-.92,1,1,0,0,0-.67.22,5.46,5.46,0,0,0-.4.43.62.62,0,0,1-.42.24q-.27,0-.27-.33a1,1,0,0,1,.05-.27,4.85,4.85,0,0,1,.76-1.36,2.25,2.25,0,0,1,1.68-1.09,6.21,6.21,0,0,1,1.65.32q1.5.45,2.07.57c1.33.27,2.56.47,3.69.59.27,0,.41.1.41.21a.75.75,0,0,1-.12.32l-.89,1.55c-.47,0-.83-.06-1.05-.06q-.72,0-.72.39c0,.51.63.76,1.88.76h1.56Z" transform="translate(-146.15 -45.83)"/><path class="cls-7" d="M331.53,119.47h-.61a1.53,1.53,0,0,1-1.06-.39,4.2,4.2,0,0,1-.62-.8c-.44,1-1,1.48-1.65,1.48s-1.6-.6-2.37-1.82a3,3,0,0,1-.64,1,1.55,1.55,0,0,1-1.11.54h-.54v-2.56h.57a1,1,0,0,0,1-.47,1.93,1.93,0,0,0,.12-.81,2.76,2.76,0,0,1,.49-1.66,2.06,2.06,0,0,1,3.44.13l1.09,1.82c.4.66.81,1,1.21,1h.69Zm-3.29-1.75c.23,0,.35-.17.35-.51a3.54,3.54,0,0,0-.45-1.51c-.4-.81-.85-1.22-1.34-1.22s-.53.24-.53.71a2.53,2.53,0,0,0,.41,1.3Q327.42,117.72,328.24,117.72Z" transform="translate(-146.15 -45.83)"/><path class="cls-7" d="M334.75,111.4a.63.63,0,0,1,0,.14c0,.09-.09.13-.28.13a2.41,2.41,0,0,1-.47,0v4.86a3.54,3.54,0,0,1-.59,2,2.08,2.08,0,0,1-1.78,1h-.6v-2.56h.63c.7,0,1.05-.25,1.05-.77a17,17,0,0,0-.24-2.18,29.45,29.45,0,0,0-.74-3.47l1.44-1.56c.11-.13.2-.19.27-.19s.15.09.23.26Z" transform="translate(-146.15 -45.83)"/><path class="cls-7" d="M338.78,109.05,338,118.8q-.06.72-.39.72c-.22,0-.37-.3-.44-.91l-1-8.16,2.25-1.64a.5.5,0,0,1,.23-.11C338.77,108.7,338.8,108.82,338.78,109.05Z" transform="translate(-146.15 -45.83)"/><path class="cls-7" d="M350.15,115.82a3.85,3.85,0,0,1-.93,2.57,3.1,3.1,0,0,1-2.43,1.14q-2.61,0-2.61-2.37a7.83,7.83,0,0,1,.76-3.19c.48-1.06.88-1.59,1.19-1.59a4.63,4.63,0,0,1,2.34,1Q350.15,114.6,350.15,115.82Zm-1.83-5.63-.36.63a10.29,10.29,0,0,0-2.7,1.32c-.1-.26-.12-.44-.06-.52A5,5,0,0,1,346,111c-.47-.27-.7-.55-.7-.86a1.52,1.52,0,0,1,.54-1,1.58,1.58,0,0,1,1-.53.94.94,0,0,1,.77.38.74.74,0,0,1,.17.34c0,.08-.08.12-.22.12l-.33,0-.35,0q-.84,0-.84.36c0,.09.11.21.31.38a2,2,0,0,0,.45.27l1.22-.39a.48.48,0,0,1,.18,0c.09,0,.13,0,.13.1A.35.35,0,0,1,348.32,110.19Zm.92,6.13c0-.2-.51-.57-1.54-1.12a6.18,6.18,0,0,0-1.92-.78c-.13,0-.26.17-.38.51a2.2,2.2,0,0,0-.16.75c0,.87.62,1.31,1.87,1.31C348.53,117,349.24,116.77,349.24,116.32Z" transform="translate(-146.15 -45.83)"/><path class="cls-7" d="M357.36,117a7.06,7.06,0,0,1-1.88,5,1.7,1.7,0,0,1-.44.39,1.14,1.14,0,0,1-.54.09,12.08,12.08,0,0,1-1.89-.1c-1.05-.11-1.57-.29-1.57-.53s.22-.38.67-.56a17.81,17.81,0,0,0,2.29-1.08c1.63-.94,2.44-1.74,2.44-2.42s-.75-1.4-2.25-2.5l1.2-1.84c.08-.13.16-.19.24-.19a.57.57,0,0,1,.33.19,3.94,3.94,0,0,1,.9,1.31A5.52,5.52,0,0,1,357.36,117Z" transform="translate(-146.15 -45.83)"/><path class="cls-7" d="M362.1,119.47h-.81c-1.47,0-2.21-1.19-2.21-3.58q0-2.85-.21-6l1.51-1.07a1,1,0,0,1,.38-.2c.07,0,.11.14.11.42v6.69c0,.8.34,1.2,1,1.2h.23Z" transform="translate(-146.15 -45.83)"/><path class="cls-7" d="M373.23,119.47h-1.52a2.45,2.45,0,0,1-2.35-1,4.57,4.57,0,0,1-.35-2.12,19.79,19.79,0,0,1-2.33,1.88,6.75,6.75,0,0,1-3.68,1.24h-1.36v-2.56h1a9.11,9.11,0,0,0,3-.51,20.24,20.24,0,0,0,2.37-1.06,23.55,23.55,0,0,0-4-.92,1.09,1.09,0,0,0-.68.22l-.39.43a.62.62,0,0,1-.42.24q-.27,0-.27-.33a1,1,0,0,1,.05-.27,4.85,4.85,0,0,1,.76-1.36,2.25,2.25,0,0,1,1.68-1.09,6.21,6.21,0,0,1,1.65.32q1.49.45,2.07.57c1.33.27,2.56.47,3.69.59.27,0,.41.1.41.21a.68.68,0,0,1-.13.32l-.88,1.55c-.48,0-.83-.06-1.06-.06-.47,0-.71.13-.71.39,0,.51.63.76,1.88.76h1.56Zm-4.57,2.25a.14.14,0,0,1,0,.22l-1,1a.15.15,0,0,1-.23,0l-1.05-1c-.09-.09-.08-.18,0-.28l1-1a.18.18,0,0,1,.27,0Z" transform="translate(-146.15 -45.83)"/><path class="cls-7" d="M377.86,119.47h-.63a2,2,0,0,1-1.94-1.63c-.31,1.09-.92,1.63-1.81,1.63h-.72v-2.56h.46c.89,0,1.45-.58,1.7-1.76.07-.38.21-.57.41-.57s.33.19.37.57c.13,1.18.64,1.76,1.53,1.76h.63Zm-.41-7.49a.13.13,0,0,1,0,.2l-1,1c-.06.07-.13.06-.2,0l-.95-1-.93,1a.13.13,0,0,1-.21,0l-1-1c-.08-.08-.07-.16,0-.26l.9-.92a.16.16,0,0,1,.25,0l.91.92.91-.92a.16.16,0,0,1,.25,0Z" transform="translate(-146.15 -45.83)"/><path class="cls-7" d="M381.07,111.4a.33.33,0,0,1,0,.14c0,.09-.09.13-.27.13a2.43,2.43,0,0,1-.48,0v4.86a3.54,3.54,0,0,1-.59,2,2.06,2.06,0,0,1-1.78,1h-.59v-2.56H378c.7,0,1.05-.25,1.05-.77a17,17,0,0,0-.24-2.18,29.45,29.45,0,0,0-.74-3.47l1.44-1.56c.11-.13.2-.19.27-.19s.15.09.23.26Z" transform="translate(-146.15 -45.83)"/><path class="cls-7" d="M395.54,119.47h-.63a1.88,1.88,0,0,1-1.64-1,11.38,11.38,0,0,1-.75-1.75,6.51,6.51,0,0,1-1.22,1.71,3.94,3.94,0,0,1-2.82,1.06,2.29,2.29,0,0,1-1.46-.44,1.7,1.7,0,0,1-.6-1.39,5.06,5.06,0,0,1,.43-2.15c.13-.28.27-.42.44-.42s.27.09.27.29a2,2,0,0,1,0,.35,2,2,0,0,0,0,.36c0,.62.52.93,1.57.93a4.41,4.41,0,0,0,3.14-1.13l-1.29-3.5,1.15-1.27c.08-.1.15-.15.19-.15s.11.07.14.19l1.37,4.16c.34,1,.81,1.56,1.43,1.56h.36Z" transform="translate(-146.15 -45.83)"/><path class="cls-7" d="M400.18,119.47h-.63a2,2,0,0,1-1.94-1.63c-.31,1.09-.92,1.63-1.81,1.63h-.72v-2.56h.46c.89,0,1.45-.58,1.7-1.76.08-.38.21-.57.41-.57s.33.19.37.57c.13,1.18.65,1.76,1.53,1.76h.63Zm-.47,2.53c.07.06.06.13,0,.2l-1,1a.15.15,0,0,1-.22,0l-.93-.94-.93.94a.14.14,0,0,1-.21,0l-1-1c-.08-.08-.07-.16,0-.26l.9-.92a.15.15,0,0,1,.25,0l.91.92.92-.92a.16.16,0,0,1,.25,0Z" transform="translate(-146.15 -45.83)"/><path class="cls-7" d="M410.58,115.15l-.7,1.31a.51.51,0,0,1-.35.29h-.82a4.46,4.46,0,0,0-1.92.7c-1.32.73-2.14,1.17-2.47,1.32a7.87,7.87,0,0,1-3.16.7h-1.44v-2.56h1.35a11.57,11.57,0,0,0,2.6-.25,20.56,20.56,0,0,0,2.21-.74c-.35-.1-1-.35-2-.75a5.56,5.56,0,0,0-1.53-.46,1.11,1.11,0,0,0-.77.23c-.08.08-.22.23-.42.46a.53.53,0,0,1-.4.19c-.19,0-.29-.11-.29-.34a1,1,0,0,1,0-.23,4.61,4.61,0,0,1,.79-1.34,2.22,2.22,0,0,1,1.66-1,16.44,16.44,0,0,1,3,.93,16.3,16.3,0,0,0,4.42,1.06c.25,0,.37.08.37.21A.66.66,0,0,1,410.58,115.15Z" transform="translate(-146.15 -45.83)"/><path class="cls-7" d="M418,116.66a10.66,10.66,0,0,1-.66,3.81,7.88,7.88,0,0,1-1.28,2.25c-.42.49-.72.73-.9.73a21.23,21.23,0,0,1-3.08-.35c-.38-.07-.58-.23-.58-.49s.15-.27.45-.37c.57-.2.94-.35,1.11-.43q3.45-1.71,4-3.61-.6.06-1.11.06c-2,0-3-.53-3-1.58a8,8,0,0,1,.57-2.41c.51-1.47,1.15-2.2,1.89-2.2q1.37,0,2.1,1.71A7.29,7.29,0,0,1,418,116.66Zm-1.47-1a1.81,1.81,0,0,0-.78-1,1.44,1.44,0,0,0-.75-.26c-.57,0-.85.27-.85.8,0,.35.57.52,1.71.52C416.1,115.72,416.32,115.71,416.52,115.69Z" transform="translate(-146.15 -45.83)"/><path class="cls-7" d="M432.09,119.47h-.47a.64.64,0,0,1-.45-.17,4.35,4.35,0,0,1,.06.74c0,1.4-.53,2.1-1.6,2.1a2.41,2.41,0,0,1-2.22-1.6,5.36,5.36,0,0,1-.53-2.36,6.12,6.12,0,0,0-1.37.17.94.94,0,0,0-.74,1l.09,3.47a3.54,3.54,0,0,1-.14,1.07q-.21.78-.57.78c-.25,0-.41-.37-.46-1.11l-.32-4.38c0-.16,0-.29,0-.39a2.86,2.86,0,0,1,1.23-2.57,4,4,0,0,1,2.27-.59c0-.67.07-1,.21-1a2.27,2.27,0,0,1,.67.41c.49.38.88.65,1.14.82a10,10,0,0,0,1.39.77,4,4,0,0,0,1.53.3h.29Zm-1.85,0c0-.18-.22-.41-.67-.67a11.83,11.83,0,0,1-1.85-1.29,3.53,3.53,0,0,0,.4,1.68,1.47,1.47,0,0,0,1.33.94.91.91,0,0,0,.55-.18A.57.57,0,0,0,430.24,119.42Z" transform="translate(-146.15 -45.83)"/><path class="cls-7" d="M436.72,119.47h-.63a2,2,0,0,1-1.94-1.63c-.31,1.09-.92,1.63-1.81,1.63h-.72v-2.56h.46c.89,0,1.45-.58,1.7-1.76.08-.38.21-.57.41-.57s.33.19.37.57c.13,1.18.64,1.76,1.53,1.76h.63Zm-.47,2.53c.07.06.06.13,0,.2l-1,1a.21.21,0,0,1-.11,0,.18.18,0,0,1-.11,0l-.93-.94-.93.94a.15.15,0,0,1-.21,0l-1-1c-.09-.08-.08-.16,0-.26l.9-.92a.15.15,0,0,1,.25,0l.92.92L435,121a.16.16,0,0,1,.25,0Z" transform="translate(-146.15 -45.83)"/><path class="cls-7" d="M445,117.25a2.59,2.59,0,0,1-.43,1.32,1.7,1.7,0,0,1-1.49,1,6,6,0,0,1-2.91-1.21,4.93,4.93,0,0,1-1.49.81,4.84,4.84,0,0,1-1.64.35h-.72v-2.56h1.33a1.31,1.31,0,0,1-.82-1.19,1.7,1.7,0,0,1,.54-1,3.5,3.5,0,0,1,1-.77l-.75-.3.88-2.18c.09-.21.2-.31.33-.31a.74.74,0,0,1,.33.12,22.59,22.59,0,0,1,3.41,2.35Q445,115.65,445,117.25Zm-4.11-1.43c0-.28-.2-.55-.59-.82a1.85,1.85,0,0,0-1-.38,1.4,1.4,0,0,0-.6.15c-.25.12-.37.27-.37.44s.27.45.82.79a3,3,0,0,0,1,.48.8.8,0,0,0,.51-.19A.61.61,0,0,0,440.9,115.82Zm3,1.73c0-.41-.65-1-1.94-1.77a2.15,2.15,0,0,1-.18.68,1.53,1.53,0,0,1-.39.59,5.41,5.41,0,0,0,2.13.81C443.74,117.86,443.87,117.76,443.87,117.55Z" transform="translate(-146.15 -45.83)"/><path class="cls-7" d="M449.06,109.05l-.79,9.75q-.06.72-.39.72c-.22,0-.37-.3-.44-.91l-.95-8.16,2.25-1.64a.5.5,0,0,1,.23-.11C449.05,108.7,449.08,108.82,449.06,109.05Z" transform="translate(-146.15 -45.83)"/><path class="cls-7" d="M457,119.47h-.47a.47.47,0,0,1-.37-.16A6.57,6.57,0,0,1,454.4,124a2.11,2.11,0,0,1-.42.39,1.28,1.28,0,0,1-.56.11,12.76,12.76,0,0,1-1.89-.11c-1-.12-1.58-.29-1.58-.53s.23-.38.68-.56a18.48,18.48,0,0,0,2.29-1.08c1.63-.94,2.44-1.75,2.44-2.42s-.75-1.41-2.26-2.5l1.27-1.89q.13-.21.21-.21c.05,0,.13.07.25.21.85,1,1.49,1.5,1.94,1.5H457Z" transform="translate(-146.15 -45.83)"/><path class="cls-7" d="M459.91,115.83a4.54,4.54,0,0,1-.6,2.33,2.37,2.37,0,0,1-2.15,1.31h-.62v-2.56h.52q1.65,0,1.65-.48c0-.29-.5-.89-1.49-1.81l1.19-1.85a.15.15,0,0,1,.24,0,3.48,3.48,0,0,1,1,1.65A4.93,4.93,0,0,1,459.91,115.83Zm-.45,6.16a.14.14,0,0,1,0,.22l-1,1a.14.14,0,0,1-.22,0l-1.05-1c-.08-.09-.07-.18,0-.28l1-1a.16.16,0,0,1,.26,0Z" transform="translate(-146.15 -45.83)"/><path class="cls-7" d="M464,109.05l-.8,9.75q-.06.72-.39.72c-.22,0-.36-.3-.44-.91l-.95-8.16,2.25-1.64a.49.49,0,0,1,.24-.11C464,108.7,464,108.82,464,109.05Z" transform="translate(-146.15 -45.83)"/></svg>