<svg id="Layer_1" data-name="Layer 1" xmlns="http://www.w3.org/2000/svg" xmlns:xlink="http://www.w3.org/1999/xlink" viewBox="0 0 263.31 59.2"><defs><radialGradient id="radial-gradient" cx="-217.73" cy="209.35" r="0.41" gradientTransform="translate(919.33 -818.11) scale(4.04 4.18)" gradientUnits="userSpaceOnUse"><stop offset="0" stop-color="#fff"/><stop offset="0.67" stop-color="#fff" stop-opacity="0.1"/></radialGradient></defs><title>logo-3</title><g style="opacity:0.9500000000000001"><path d="M58,16.8S33.7,35.08,37.85,57.63s26,18,26,18,3-.65,3.07-2.11a3.5,3.5,0,0,0-.64-2.32s-2.9-3.76-4.73-5.74S47.12,50.3,49.89,41.53L47.6,39.9s-6,8.19-1.42,21.26C46.18,61.16,31.19,45.05,58,16.8Z" transform="translate(-37.3 -16.8)" style="fill:#308ace"/><path d="M53.51,30.77s-6.83,16.42,4.64,27.54,10.32,15,10.32,15S78,70.15,69.81,58.9,55.23,41.5,53.51,30.77Z" transform="translate(-37.3 -16.8)" style="fill:#e84646"/><path d="M52.57,33.68s.21,6.16,13.21,19.87c0,0-11-14-12.27-22.78L53,32.25l-.41,1.43" transform="translate(-37.3 -16.8)" style="fill:#752323"/><path d="M47.6,39.9S43.88,52.27,60.37,64.11c0,0-14.74,10.11-22.07-4.44A37.27,37.27,0,0,1,38,46.17s-1.13,13.31,8.15,15C46.18,61.16,41.54,48.15,47.6,39.9Z" transform="translate(-37.3 -16.8)" style="fill:#42a1db"/><path d="M49.89,41.53,47.6,39.9S43.72,52.44,60.37,64.11C60.37,64.11,47.43,51.12,49.89,41.53Z" transform="translate(-37.3 -16.8)"/><path d="M58,16.8S40.38,30.08,38,46.17c0,0-1.85,13.31,8.15,15C46.18,61.16,31.22,45.2,58,16.8Z" transform="translate(-37.3 -16.8)"/><path d="M40,62.49s-4.41-3.91-2-16.32c0,0-1.05,10.18,4.14,13.34Z" transform="translate(-37.3 -16.8)" style="fill:#42a1db"/><path d="M38.05,50.71s.17,8.6,6.85,10.15A15.67,15.67,0,0,1,38.05,50.71Z" transform="translate(-37.3 -16.8)" style="fill:#87b4dd"/><path d="M39.57,55a11.66,11.66,0,0,0,2.3,3.25l-.55.57a7.27,7.27,0,0,1-2.24-3.39Z" transform="translate(-37.3 -16.8)" style="fill:url(#radial-gradient)"/><path d="M47.6,39.9S43.8,53,60.37,64.11C60.37,64.11,47.55,54.87,47.6,39.9Z" transform="translate(-37.3 -16.8)"/><path d="M66.12,49.53l4.56,4.57S71.05,49.38,66.12,49.53Z" transform="translate(-37.3 -16.8)" style="fill:#770c0c"/><path d="M65,49.25l5.15,6.38A4.31,4.31,0,0,0,65,49.25Z" transform="translate(-37.3 -16.8)"/><path d="M74.81,59.82h0a2,2,0,0,0,.13-.18h0a1.38,1.38,0,0,0-.26-1.88A9.09,9.09,0,0,0,74,57a1,1,0,0,1-.24-1.16,4.81,4.81,0,0,0,.35-2.7c-.26-1.07.32-1.63,1-2.23,1-.9,1.07-1.32.33-2.51l-.35-.55c-.69-1-.85-1.06-2-.62l-1,.39a.69.69,0,0,1-.85-.15A5.1,5.1,0,0,0,68.61,46a1.78,1.78,0,0,1-1.49-1.33q-.18-.45-.39-.9c-.09-.19-.2-.41-.42-.45a3.38,3.38,0,0,0-2.51.46c-.57.37-.15,1-.16,1.57,0,0,0,.1,0,.16s0,.87-.29,1.07l1.17,1.9a5.38,5.38,0,0,1,1.85-.26l.26,0c2.88-.1,5.65,3.15,4.8,6.63,0,0,0,.08,0,.11h0a4.8,4.8,0,0,1-.74,1.26l3,4.63.27-.29,0,0,.48-.48a.56.56,0,0,0,.2-.16,1,1,0,0,0,.12-.16Z" transform="translate(-37.3 -16.8)"/><path d="M81.85,53.46c.34,0,.53-.17.42-.58a2,2,0,0,1,0-.65c.08-.64-.17-.95-.79-.85-.44.08-.56-.11-.56-.52a2.55,2.55,0,0,0-.14-.72c-.17-.46-.06-.72.43-.81s.54-.29.37-.71a8.94,8.94,0,0,1-.32-1c-.08-.29-.25-.43-.53-.29-.65.34-1,0-1.12-.61-.08-.3-.59-.68-.13-.9,1-.49.41-1,.12-1.51S79,43.39,78.36,44c-.26.26-.51.1-.66-.15s-1-.73-.64-1.15c.72-.87,0-1.1-.42-1.49-.22-.19-.49-.7-.75-.39-.71.84-1.18.18-1.73-.16-.33-.2-.49-.42-.23-.78s.07-.62-.29-.79a8.1,8.1,0,0,1-.78-.39c-.4-.25-.69-.19-.86.29-.09.23-.2.53-.49.33s-1.26,0-1.22-.64c.08-1.19-.72-1-1.35-1.17-.41-.1-.73,0-.73.53,0,.27-.09.51-.39.5a5.07,5.07,0,0,1-1.24-.11c-.36-.1-.21-.5-.28-.78a.42.42,0,0,0-.46-.35l-1.1,0c-.46,0-.68.17-.51.7a.48.48,0,0,1-.51.69c-.41,0-1,.58-1.19-.21s-.52-.63-1-.47a7.88,7.88,0,0,1-.83.24c-.4.09-.45.31-.28.65s.28.58.09.83L59.8,40l1.06,2.63L62.38,42a11.64,11.64,0,0,1,6.79-.42c.52.12.67.34.46.85s-.44,1.1-.63,1.67c-.37,1.08-.35,1.07.67,1.49a4.64,4.64,0,0,1,1.19.62c.42.31.57.21.74-.24.29-.79.63-1.55,1-2.33.15-.37.3-.49.69-.21a12.25,12.25,0,0,1,3.26,3.39,12,12,0,0,1,2,6.49.93.93,0,0,1-.75.05,12.09,12.09,0,0,0-2.24-.4c-.51-.05-.7.18-.61.64a4.64,4.64,0,0,1-.2,1.93c-.12.51.05.63.47.68.8.1,1.61.24,2.41.31.53.05.74.17.57.8a10.48,10.48,0,0,1-1.81,3.86,4.79,4.79,0,0,0-.48.69,9.61,9.61,0,0,1-1.18,1.43s.67,1.75.34,2.53c0,0,0,.1.78-.61l.29-.3.15-.15c.31-.36.57-.42.86,0s.63.51,1,0a2.73,2.73,0,0,1,.48-.54c.37-.35.32-.66-.08-.9s-.5-.56-.14-1a2,2,0,0,0,.4-.6c.26-.64.64-.8,1.2-.37.34.26.57.16.72-.24s.24-.54.37-.81.09-.54-.26-.7-.8-.13-.65-.53,0-1.36.85-1.58c.3.07.73.33.84-.14a8.92,8.92,0,0,0,.28-1.16c0-.38-.09-.55-.46-.55a.91.91,0,0,1-.54-.1,3.79,3.79,0,0,1,0-.83c0-.05,0-.1,0-.16v0h0v-.34C81.17,53.76,81.23,53.4,81.85,53.46Z" transform="translate(-37.3 -16.8)"/><path d="M60.9,33.24h0c.49-.42,1-.85,1.45-1.28a.66.66,0,0,1,1-.09c1.33,1,2.69,1.9,4,2.84s1.21.79,2.5-.05a1,1,0,0,0,.49-1.35,14.62,14.62,0,0,0-2.76-5.53c-.23-.27-.64-.57-.18-.94.94-.75,0-1.14-.28-1.64-.35-.71-.8-.24-1.15,0a.64.64,0,0,1-1,0,16.75,16.75,0,0,0-1.58-1.06.85.85,0,0,0-1.2.08,4.61,4.61,0,0,1-1.18.94c-.65.33-.59.81-.42,1.35a4,4,0,0,0,.42,1,.67.67,0,0,1,.09.78l-4.92,4.14,1.44,3.45.54-.46c.16,0,.31-.2.43-.31l2.11-1.84Z" transform="translate(-37.3 -16.8)"/></g><path d="M96.42,32.24h5l5.81,18.07h-4.42l-2.42-9.15c-.52-1.81-1-3.94-1.51-5.83h-.11c-.45,1.91-.94,4-1.46,5.83l-2.43,9.15H90.61Zm-2,10.59h8.9V46h-8.9Z" transform="translate(-37.3 -16.8)"/><path d="M105.94,32.24h4.29l1.28,8.44c.24,1.91.51,3.81.75,5.72h.12c.36-1.91.73-3.84,1.1-5.72l2-8.44H119l2,8.44c.38,1.84.75,3.79,1.12,5.72h.11c.24-1.93.5-3.86.74-5.72l1.29-8.44h4L125,50.31h-5.26l-1.81-8.2c-.3-1.4-.54-2.85-.74-4.2H117c-.22,1.35-.45,2.8-.75,4.2l-1.75,8.2h-5.16Z" transform="translate(-37.3 -16.8)"/><path d="M135.11,32.24h11.68v3.43h-7.5v4.19h6.4v3.42h-6.4v7h-4.18Z" transform="translate(-37.3 -16.8)"/><path d="M148.35,41.94v-9.7h4.18V42.36c0,3.53,1.14,4.76,3.21,4.76S159,45.89,159,42.36V32.24h4v9.7c0,6.07-2.53,8.7-7.32,8.7S148.35,48,148.35,41.94Z" transform="translate(-37.3 -16.8)"/><path d="M166.34,32.24h11.59v3.43h-7.41V39.3h6.31v3.42h-6.31v4.17h7.7v3.42H166.34Z" transform="translate(-37.3 -16.8)"/><path d="M180.82,32.24H185V46.89h7.31v3.42H180.82Z" transform="translate(-37.3 -16.8)"/><path d="M203.18,35.67h-5.09V32.24h14.37v3.43h-5.1V50.31h-4.18Z" transform="translate(-37.3 -16.8)"/><path d="M214.32,32.24H221c3.92,0,7.14,1.33,7.14,5.63s-3.22,5.94-7.14,5.94h-2.48v6.5h-4.19Zm6.33,8.33c2.2,0,3.38-.92,3.38-2.7s-1.18-2.38-3.38-2.38h-2.14v5.08Zm-.43,2.16,2.9-2.61L229,50.31h-4.68Z" transform="translate(-37.3 -16.8)"/><path d="M232.93,32.24h5l5.81,18.07h-4.42l-2.42-9.15c-.52-1.81-1-3.94-1.51-5.83h-.11c-.45,1.91-.94,4-1.45,5.83l-2.44,9.15h-4.27Zm-2,10.59h8.9V46H231Z" transform="translate(-37.3 -16.8)"/><path d="M244.25,32.24h5.23c5.65,0,9.29,2.75,9.29,9s-3.64,9.11-9.06,9.11h-5.46Zm5,14.78c3.13,0,5.26-1.5,5.26-5.82s-2.13-5.67-5.26-5.67h-.8V47Z" transform="translate(-37.3 -16.8)"/><path d="M261.29,32.24h4.18V50.31h-4.18Z" transform="translate(-37.3 -16.8)"/><path d="M267.87,32.24h4.29l4.83,9,1.83,4h.11c-.2-1.91-.54-4.44-.54-6.57V32.24h4V50.31h-4.29l-4.82-9-1.83-3.94h-.12c.2,2,.54,4.41.54,6.54v6.41h-4Z" transform="translate(-37.3 -16.8)"/><path d="M284.94,41.38c0-6,4.08-9.47,9-9.47a8.12,8.12,0,0,1,5.84,2.35l-2.21,2.62a4.82,4.82,0,0,0-3.49-1.44c-2.85,0-4.87,2.18-4.87,5.8s1.72,5.88,5.2,5.88a3.39,3.39,0,0,0,2-.54V43.46h-3.06V40.13h6.78v8.33A9.07,9.07,0,0,1,294,50.64C288.91,50.64,284.94,47.47,284.94,41.38Z" transform="translate(-37.3 -16.8)"/><path d="M98,63.51A3.89,3.89,0,0,1,97.57,65c-.33.72-.66,1.06-1,1l-2.68-.21h-.16a.52.52,0,0,0-.59.59v3.66A4.49,4.49,0,0,1,93,71.22c-.16.58-.35.87-.56.87s-.26-.28-.28-.83l-.21-5.41a2.15,2.15,0,0,1,.4-1.45,1.6,1.6,0,0,1,1.36-.58,1.65,1.65,0,0,1-.2-.75A1.91,1.91,0,0,1,94,62c.38-.48.73-.71,1-.71a3.71,3.71,0,0,1,1.67.74C97.58,62.61,98,63.09,98,63.51Zm-1.24.33a3.82,3.82,0,0,0-2-.73c-.27,0-.4.12-.4.38a.69.69,0,0,0,.17.43c.42,0,1.17.12,2.25.26h.13c.1,0,.15,0,.15-.08S96.94,64,96.76,63.84Z" transform="translate(-37.3 -16.8)"/><path d="M101.3,66.85a1,1,0,0,1-.29.72,1,1,0,0,1-1.45,0,1,1,0,0,1-.29-.73,1,1,0,0,1,.29-.74,1,1,0,0,1,.73-.29,1,1,0,0,1,1,1Z" transform="translate(-37.3 -16.8)"/><path d="M108.68,63.51a3.94,3.94,0,0,1-.44,1.52c-.33.72-.66,1.06-1,1l-2.68-.21h-.16a.52.52,0,0,0-.59.59v3.66a4.49,4.49,0,0,1-.18,1.13c-.16.58-.34.87-.56.87s-.26-.28-.28-.83l-.21-5.41A2.1,2.1,0,0,1,103,64.4a1.58,1.58,0,0,1,1.35-.58,1.65,1.65,0,0,1-.2-.75,1.91,1.91,0,0,1,.54-1c.39-.48.73-.71,1-.71a3.73,3.73,0,0,1,1.68.74C108.25,62.61,108.68,63.09,108.68,63.51Zm-1.25.33a3.82,3.82,0,0,0-2-.73c-.27,0-.4.12-.4.38a.69.69,0,0,0,.17.43c.42,0,1.17.12,2.26.26h.12c.1,0,.16,0,.16-.08S107.61,64,107.43,63.84Z" transform="translate(-37.3 -16.8)"/><path d="M112,66.85a1,1,0,0,1-.3.72,1,1,0,0,1-1.44,0,1,1,0,0,1-.3-.73,1,1,0,0,1,.3-.74,1,1,0,0,1,.72-.29,1,1,0,0,1,.72.3A1,1,0,0,1,112,66.85Z" transform="translate(-37.3 -16.8)"/><path d="M118.93,64.43a4.36,4.36,0,0,1-.44,2.3,2.31,2.31,0,0,1-2.12,1H115a1.64,1.64,0,0,1-1.27-.5,1.87,1.87,0,0,1-.45-1.32,6,6,0,0,1,.13-1.18c.06-.27.18-.4.34-.4s.33.2.4.61.64.64,1.72.64c1.64,0,2.46-.18,2.46-.55s-.41-.68-1.23-1.31a4,4,0,0,0-1.64-.93.52.52,0,0,0-.22.06.46.46,0,0,1-.16.06c-.18,0-.27-.09-.27-.28a.74.74,0,0,1,0-.22l.65-1.65a.33.33,0,0,1,.33-.23c.39,0,1,.45,1.81,1.34A4.15,4.15,0,0,1,118.93,64.43ZM116,59.16c.06.05.06.11,0,.18l-.87.88a.13.13,0,0,1-.2,0l-.87-.87c-.07-.07-.07-.15,0-.24l.81-.83a.14.14,0,0,1,.22,0Z" transform="translate(-37.3 -16.8)"/><path d="M122.23,66.85a1,1,0,0,1-.3.72,1,1,0,0,1-1.44,0,1,1,0,0,1-.3-.73,1,1,0,0,1,.3-.74,1,1,0,0,1,.72-.29,1,1,0,0,1,.72.3A1,1,0,0,1,122.23,66.85Z" transform="translate(-37.3 -16.8)"/><path d="M136.78,64.93a3.82,3.82,0,0,1-.44,1.86,1.56,1.56,0,0,1-1.39.91,1.23,1.23,0,0,1-1.15-.76,1.09,1.09,0,0,1-1,.76,2.15,2.15,0,0,1-.8-.15,4.29,4.29,0,0,1-1.17,3.26,4.53,4.53,0,0,1-3.29,1.13,5.28,5.28,0,0,1-2.75-.65,2.6,2.6,0,0,1-1.31-2.37,4.63,4.63,0,0,1,.71-2.61.49.49,0,0,1,.39-.27c.1,0,.16.07.16.21a1,1,0,0,1,0,.27,4.33,4.33,0,0,0-.25,1.36c0,1.28,1,1.92,3.13,1.92a8,8,0,0,0,2.26-.29c1-.28,1.52-.72,1.52-1.32,0-.42-.58-1.25-1.74-2.5l.92-1.55c.08-.13.14-.19.19-.19s.12,0,.19.14a9.51,9.51,0,0,0,.83,1,1.46,1.46,0,0,0,1,.48c.24,0,.42-.23.56-.69s.24-.69.33-.69.24.12.28.36a1.48,1.48,0,0,0,.26.66,1.46,1.46,0,0,0,1.12.36c.44,0,.67-.18.67-.54a2.22,2.22,0,0,0-.67-1.18l.78-1.08c.06-.08.1-.11.15-.11s.09,0,.13.12A5.43,5.43,0,0,1,136.78,64.93ZM135.3,61c.06,0,0,.11,0,.17l-.82.82a.1.1,0,0,1-.17,0l-.79-.8-.78.8a.1.1,0,0,1-.17,0l-.84-.81q-.09-.09,0-.21l.75-.78a.13.13,0,0,1,.21,0l.77.78.77-.78a.13.13,0,0,1,.2,0Zm-.85-1.62c.05.05.05.11,0,.18l-.8.8a.13.13,0,0,1-.18,0l-.81-.79a.13.13,0,0,1,0-.21l.76-.77a.11.11,0,0,1,.19,0Z" transform="translate(-37.3 -16.8)"/><path d="M152.26,63.55a4.76,4.76,0,0,1-.39,2.08,3.15,3.15,0,0,1-1.49,1.46,9.83,9.83,0,0,1-4.07.61,15.64,15.64,0,0,1-2.35-.14c-1.78-.3-2.67-1.24-2.67-2.81a4.78,4.78,0,0,1,.32-1.9c.1-.22.22-.33.35-.33s.21.08.21.26,0,.18,0,.33a1.6,1.6,0,0,0,0,.32,1.68,1.68,0,0,0,.58,1.43,6.44,6.44,0,0,0,3.62.7,21.34,21.34,0,0,0,3.21-.2c1.15-.17,1.73-.43,1.73-.77s-.44-.75-1.31-1.41l.92-1.9c0-.09.08-.14.1-.14s.08,0,.16.07a2.69,2.69,0,0,1,.75.88A3,3,0,0,1,152.26,63.55Zm-3.92-2.72a.11.11,0,0,1,0,.17l-.81.82a.12.12,0,0,1-.18,0l-.79-.8-.78.8a.12.12,0,0,1-.18,0l-.82-.81c-.07-.06-.06-.13,0-.21l.75-.78a.13.13,0,0,1,.21,0l.77.78.77-.78a.13.13,0,0,1,.21,0Z" transform="translate(-37.3 -16.8)"/><path d="M156.22,67.7h-.68c-1.24,0-1.86-1-1.86-3,0-1.6-.05-3.28-.17-5l1.27-.9a.72.72,0,0,1,.31-.17c.07,0,.1.11.1.35v5.62c0,.67.28,1,.84,1h.19Z" transform="translate(-37.3 -16.8)"/><path d="M160.38,64a3.92,3.92,0,0,1-.88,2.75,3.49,3.49,0,0,1-2.68,1h-1V65.55h1.62a4.58,4.58,0,0,0,1.18-.16c.58-.14.87-.35.87-.62-.69.07-1.18.11-1.46.11-1.14,0-1.71-.39-1.71-1.16a4.69,4.69,0,0,1,.42-1.85c.35-.83.82-1.24,1.4-1.24a1.84,1.84,0,0,1,1.51.8A4,4,0,0,1,160.38,64ZM160,58.85c.06,0,.05.11,0,.17l-.81.82a.11.11,0,0,1-.18,0l-.78-.8-.79.8a.1.1,0,0,1-.17,0l-.83-.81c-.06-.06-.05-.13,0-.21l.76-.78a.13.13,0,0,1,.2,0l.77.78L159,58a.14.14,0,0,1,.21,0Zm-.85,4.28a1.57,1.57,0,0,0-1.3-.85.66.66,0,0,0-.45.17.58.58,0,0,0-.18.43c0,.25.3.37.92.37A4.05,4.05,0,0,0,159.15,63.13Z" transform="translate(-37.3 -16.8)"/><path d="M166.53,65.34a9,9,0,0,1-.56,3.2,6.42,6.42,0,0,1-1.07,1.88c-.35.42-.61.62-.76.62a18.18,18.18,0,0,1-2.58-.29c-.33-.06-.49-.2-.49-.42s.13-.22.38-.31q.7-.26.93-.36,2.9-1.43,3.33-3c-.34,0-.65.05-.94.05-1.69,0-2.54-.44-2.54-1.33a6.67,6.67,0,0,1,.48-2c.43-1.23,1-1.85,1.58-1.85q1.16,0,1.77,1.44A6.14,6.14,0,0,1,166.53,65.34Zm-1.24-.82a1.49,1.49,0,0,0-.65-.86,1.14,1.14,0,0,0-.63-.22c-.48,0-.72.22-.72.67,0,.3.48.44,1.44.44A4.61,4.61,0,0,0,165.29,64.52Z" transform="translate(-37.3 -16.8)"/><path d="M173.18,67.7h-.39a.41.41,0,0,1-.31-.14,5.54,5.54,0,0,1-1.48,4,1.68,1.68,0,0,1-.36.32.88.88,0,0,1-.46.09,9.68,9.68,0,0,1-1.59-.09c-.88-.1-1.32-.25-1.32-.44s.19-.32.56-.47a15.41,15.41,0,0,0,1.93-.91c1.36-.79,2.05-1.47,2.05-2s-.64-1.18-1.9-2.1L171,64.28c.08-.11.14-.17.18-.17s.11.06.21.17c.71.85,1.25,1.27,1.63,1.27h.19Z" transform="translate(-37.3 -16.8)"/><path d="M182.53,67.7h-1.28a2.09,2.09,0,0,1-2-.84,4,4,0,0,1-.28-1.78,17.9,17.9,0,0,1-2,1.58,5.73,5.73,0,0,1-3.09,1h-1.15V65.55h.87a7.57,7.57,0,0,0,2.51-.43,16.93,16.93,0,0,0,2-.89,20.24,20.24,0,0,0-3.37-.78,1,1,0,0,0-.57.19l-.33.36a.5.5,0,0,1-.35.21c-.15,0-.22-.1-.22-.29a.64.64,0,0,1,0-.22,4.12,4.12,0,0,1,.63-1.14,1.91,1.91,0,0,1,1.42-.92,5.1,5.1,0,0,1,1.38.27q1.26.38,1.74.48c1.12.23,2.15.4,3.1.5.23,0,.34.08.34.18a.61.61,0,0,1-.1.26l-.74,1.3c-.4,0-.7,0-.89,0q-.6,0-.6.33c0,.43.52.64,1.58.64h1.31Z" transform="translate(-37.3 -16.8)"/><path d="M189.36,67.7h-.52a1.29,1.29,0,0,1-.89-.33,3.73,3.73,0,0,1-.52-.67c-.37.83-.82,1.25-1.38,1.25s-1.34-.51-2-1.53a2.7,2.7,0,0,1-.54.83,1.29,1.29,0,0,1-.93.45h-.46V65.55h.48a.84.84,0,0,0,.83-.39,1.64,1.64,0,0,0,.1-.69,2.38,2.38,0,0,1,.41-1.39,1.73,1.73,0,0,1,2.9.11l.91,1.53c.34.55.68.83,1,.83h.58Zm-2.77-1.47c.2,0,.3-.15.3-.43a3.05,3.05,0,0,0-.38-1.27c-.34-.68-.72-1-1.13-1s-.44.2-.44.59a2.13,2.13,0,0,0,.34,1.1C185.69,65.88,186.13,66.23,186.59,66.23Z" transform="translate(-37.3 -16.8)"/><path d="M192.06,60.92a.35.35,0,0,1,0,.12c0,.07-.07.11-.23.11a2.31,2.31,0,0,1-.4,0v4.08a2.93,2.93,0,0,1-.49,1.7,1.74,1.74,0,0,1-1.5.81H189V65.55h.53c.59,0,.88-.22.88-.65a14.82,14.82,0,0,0-.2-1.83,24.25,24.25,0,0,0-.63-2.92l1.21-1.31c.1-.1.17-.15.24-.15s.12.07.18.21Z" transform="translate(-37.3 -16.8)"/><path d="M195.45,59l-.67,8.18c0,.41-.14.61-.32.61s-.31-.26-.37-.77l-.8-6.85,1.89-1.38a.39.39,0,0,1,.19-.09C195.44,58.65,195.46,58.75,195.45,59Z" transform="translate(-37.3 -16.8)"/><path d="M205,64.63a3.23,3.23,0,0,1-.79,2.16,2.59,2.59,0,0,1-2,1c-1.46,0-2.19-.67-2.19-2a6.65,6.65,0,0,1,.64-2.67c.41-.89.74-1.34,1-1.34a3.84,3.84,0,0,1,2,.87C204.52,63.28,205,64,205,64.63Zm-1.54-4.73-.3.53a8.57,8.57,0,0,0-2.27,1.11c-.09-.22-.1-.37,0-.44a4.1,4.1,0,0,1,.69-.56c-.39-.22-.59-.46-.59-.72a1.25,1.25,0,0,1,.46-.85,1.27,1.27,0,0,1,.86-.45.79.79,0,0,1,.65.33.55.55,0,0,1,.13.28c0,.06-.06.1-.18.1l-.28,0-.28,0c-.47,0-.71.1-.71.3s.09.18.26.32a1.4,1.4,0,0,0,.38.23l1-.33.15,0c.08,0,.11,0,.11.08A.22.22,0,0,1,203.46,59.9Zm.77,5.15c0-.17-.43-.48-1.29-.94a5.13,5.13,0,0,0-1.62-.66c-.11,0-.22.15-.32.43a1.91,1.91,0,0,0-.13.64c0,.73.52,1.09,1.57,1.09S204.23,65.43,204.23,65.05Z" transform="translate(-37.3 -16.8)"/><path d="M211.05,65.64a5.9,5.9,0,0,1-1.57,4.16,1.36,1.36,0,0,1-.37.33,1,1,0,0,1-.46.08,10.21,10.21,0,0,1-1.58-.08c-.88-.1-1.33-.25-1.33-.45s.19-.32.57-.47a13.4,13.4,0,0,0,1.92-.91c1.37-.78,2.05-1.46,2.05-2s-.63-1.18-1.89-2.1l1-1.55c.07-.1.13-.15.2-.15a.51.51,0,0,1,.28.15,3.26,3.26,0,0,1,.75,1.11A4.54,4.54,0,0,1,211.05,65.64Z" transform="translate(-37.3 -16.8)"/><path d="M215,67.7h-.69c-1.23,0-1.85-1-1.85-3,0-1.6-.06-3.28-.17-5l1.26-.9a.69.69,0,0,1,.32-.17c.06,0,.09.11.09.35v5.62c0,.67.28,1,.84,1h.2Z" transform="translate(-37.3 -16.8)"/><path d="M224.38,67.7h-1.27a2.09,2.09,0,0,1-2-.84,3.92,3.92,0,0,1-.29-1.78,17.07,17.07,0,0,1-2,1.58,5.79,5.79,0,0,1-3.1,1h-1.14V65.55h.87a7.57,7.57,0,0,0,2.51-.43,17.71,17.71,0,0,0,2-.89,20.48,20.48,0,0,0-3.37-.78.93.93,0,0,0-.57.19,4.92,4.92,0,0,0-.34.36.48.48,0,0,1-.34.21c-.15,0-.23-.1-.23-.29a.64.64,0,0,1,0-.22,4.18,4.18,0,0,1,.64-1.14,1.88,1.88,0,0,1,1.41-.92,5.16,5.16,0,0,1,1.39.27q1.24.38,1.74.48c1.11.23,2.15.4,3.1.5.22,0,.34.08.34.18a.68.68,0,0,1-.11.26l-.74,1.3c-.4,0-.69,0-.88,0-.41,0-.61.11-.61.33,0,.43.53.64,1.58.64h1.31Zm-3.84,1.89a.12.12,0,0,1,0,.19l-.88.88a.12.12,0,0,1-.19,0l-.89-.87c-.07-.07-.06-.15,0-.24l.81-.83a.15.15,0,0,1,.23,0Z" transform="translate(-37.3 -16.8)"/><path d="M228.27,67.7h-.52a1.66,1.66,0,0,1-1.63-1.37c-.27.91-.78,1.37-1.53,1.37H224V65.55h.39c.74,0,1.22-.49,1.42-1.48.07-.32.18-.48.35-.48s.27.16.31.48c.11,1,.54,1.48,1.29,1.48h.52Zm-.34-6.3a.12.12,0,0,1,0,.18l-.81.82a.13.13,0,0,1-.18,0l-.79-.8-.78.79a.12.12,0,0,1-.18,0l-.82-.81c-.06-.06-.06-.13,0-.21l.76-.78a.13.13,0,0,1,.21,0l.77.78.76-.78a.13.13,0,0,1,.21,0Z" transform="translate(-37.3 -16.8)"/><path d="M231,60.92a.35.35,0,0,1,0,.12c0,.07-.07.11-.23.11a2.22,2.22,0,0,1-.39,0v4.08a2.94,2.94,0,0,1-.5,1.7,1.73,1.73,0,0,1-1.5.81h-.49V65.55h.52c.59,0,.88-.22.88-.65a14.82,14.82,0,0,0-.2-1.83,26.46,26.46,0,0,0-.62-2.92l1.21-1.31a.37.37,0,0,1,.23-.15c.06,0,.12.07.19.21Z" transform="translate(-37.3 -16.8)"/><path d="M243.12,67.7h-.53a1.57,1.57,0,0,1-1.37-.82,8.35,8.35,0,0,1-.63-1.47,5.47,5.47,0,0,1-1,1.44,3.34,3.34,0,0,1-2.37.89,1.89,1.89,0,0,1-1.22-.37,1.4,1.4,0,0,1-.5-1.16,4.3,4.3,0,0,1,.35-1.81c.11-.24.23-.36.37-.36s.23.08.23.24a2.13,2.13,0,0,1,0,.3c0,.14,0,.24,0,.3q0,.78,1.32.78a3.69,3.69,0,0,0,2.64-.94l-1.08-2.94,1-1.07c.07-.08.13-.12.17-.12s.08,0,.11.15l1.15,3.5c.28.87.69,1.31,1.2,1.31h.3Z" transform="translate(-37.3 -16.8)"/><path d="M247,67.7h-.52a1.66,1.66,0,0,1-1.63-1.37c-.27.91-.78,1.37-1.53,1.37h-.6V65.55h.38c.75,0,1.23-.49,1.43-1.48.07-.32.18-.48.35-.48s.27.16.31.48c.11,1,.54,1.48,1.29,1.48H247Zm-.39,2.13c.05,0,.05.1,0,.16l-.81.82a.11.11,0,0,1-.18,0l-.79-.79-.78.79a.1.1,0,0,1-.17,0l-.83-.8c-.07-.07-.06-.14,0-.22l.75-.78a.13.13,0,0,1,.21,0l.77.78.77-.78a.14.14,0,0,1,.21,0Z" transform="translate(-37.3 -16.8)"/><path d="M255.76,64.07l-.59,1.1a.39.39,0,0,1-.3.24h-.68a3.86,3.86,0,0,0-1.62.59c-1.1.62-1.79,1-2.07,1.11a6.7,6.7,0,0,1-2.65.59h-1.21V65.55h1.13a9.82,9.82,0,0,0,2.18-.21,18.52,18.52,0,0,0,1.86-.62q-.44-.14-1.71-.63a4.69,4.69,0,0,0-1.28-.39,1,1,0,0,0-.65.19l-.35.39a.47.47,0,0,1-.34.16c-.16,0-.24-.1-.24-.28a.79.79,0,0,1,0-.2,3.68,3.68,0,0,1,.66-1.13,1.86,1.86,0,0,1,1.39-.86,13.28,13.28,0,0,1,2.49.79,14,14,0,0,0,3.71.89c.21,0,.32.07.32.18A.6.6,0,0,1,255.76,64.07Z" transform="translate(-37.3 -16.8)"/><path d="M262,65.34a9,9,0,0,1-.55,3.2,6.22,6.22,0,0,1-1.08,1.88c-.35.42-.6.62-.76.62a18.18,18.18,0,0,1-2.58-.29c-.32-.06-.49-.2-.49-.42s.13-.22.38-.31q.72-.26.93-.36,2.91-1.43,3.33-3c-.34,0-.65.05-.94.05-1.69,0-2.53-.44-2.53-1.33a6.58,6.58,0,0,1,.47-2c.43-1.23,1-1.85,1.59-1.85s1.35.48,1.76,1.44A6.14,6.14,0,0,1,262,65.34Zm-1.23-.82a1.53,1.53,0,0,0-.65-.86,1.17,1.17,0,0,0-.64-.22c-.47,0-.71.22-.71.67,0,.3.48.44,1.44.44A4.86,4.86,0,0,0,260.75,64.52Z" transform="translate(-37.3 -16.8)"/><path d="M273.83,67.7h-.4a.53.53,0,0,1-.37-.14,4,4,0,0,1,.05.62c0,1.17-.45,1.76-1.35,1.76a2,2,0,0,1-1.86-1.34,4.56,4.56,0,0,1-.45-2,6.28,6.28,0,0,0-1.15.14.81.81,0,0,0-.62.83l.08,2.91a3.72,3.72,0,0,1-.12.9c-.12.44-.28.66-.49.66s-.33-.31-.38-.93l-.27-3.68c0-.13,0-.24,0-.33a2.39,2.39,0,0,1,1-2.16,3.46,3.46,0,0,1,1.91-.5q0-.84.18-.84a2,2,0,0,1,.56.35c.42.32.74.54,1,.69a8.74,8.74,0,0,0,1.17.65,3.32,3.32,0,0,0,1.28.25h.25Zm-1.56,0c0-.16-.19-.35-.56-.57A10.52,10.52,0,0,1,270.15,66a3,3,0,0,0,.34,1.41,1.24,1.24,0,0,0,1.12.79.77.77,0,0,0,.46-.15A.46.46,0,0,0,272.27,67.66Z" transform="translate(-37.3 -16.8)"/><path d="M277.71,67.7h-.52a1.67,1.67,0,0,1-1.63-1.37c-.27.91-.77,1.37-1.52,1.37h-.61V65.55h.39c.74,0,1.22-.49,1.42-1.48.07-.32.19-.48.35-.48s.27.16.31.48c.11,1,.54,1.48,1.29,1.48h.52Zm-.39,2.13c.06,0,.06.1,0,.16l-.82.82a.11.11,0,0,1-.18,0l-.78-.79-.78.79a.11.11,0,0,1-.18,0l-.82-.8c-.08-.07-.07-.14,0-.22l.75-.78a.14.14,0,0,1,.22,0l.76.78.77-.78a.14.14,0,0,1,.21,0Z" transform="translate(-37.3 -16.8)"/><path d="M284.68,65.83a2.19,2.19,0,0,1-.36,1.11,1.42,1.42,0,0,1-1.25.8,5.13,5.13,0,0,1-2.45-1,4.38,4.38,0,0,1-1.25.68,4.11,4.11,0,0,1-1.38.29h-.6V65.54h1.11a1.1,1.1,0,0,1-.68-1,1.47,1.47,0,0,1,.45-.89,2.92,2.92,0,0,1,.81-.64l-.63-.25.74-1.84c.07-.17.16-.25.27-.25a.56.56,0,0,1,.28.1,19.2,19.2,0,0,1,2.87,2C284,63.91,284.68,64.94,284.68,65.83Zm-3.46-1.2c0-.23-.16-.46-.49-.68a1.48,1.48,0,0,0-.82-.33,1.07,1.07,0,0,0-.5.13c-.21.1-.32.23-.32.37s.23.38.69.66a2.56,2.56,0,0,0,.83.41A.65.65,0,0,0,281,65,.51.51,0,0,0,281.22,64.63Zm2.5,1.46c0-.35-.54-.84-1.63-1.49a1.46,1.46,0,0,1-.15.57,1.25,1.25,0,0,1-.32.49,4.4,4.4,0,0,0,1.79.69C283.62,66.35,283.72,66.26,283.72,66.09Z" transform="translate(-37.3 -16.8)"/><path d="M288.09,59l-.68,8.18c0,.41-.14.61-.32.61s-.31-.26-.37-.77l-.8-6.85,1.89-1.38a.41.41,0,0,1,.2-.09C288.07,58.65,288.1,58.75,288.09,59Z" transform="translate(-37.3 -16.8)"/><path d="M294.75,67.7h-.39a.43.43,0,0,1-.32-.14,5.53,5.53,0,0,1-1.47,4,1.68,1.68,0,0,1-.36.32.93.93,0,0,1-.47.09,9.79,9.79,0,0,1-1.59-.09c-.88-.1-1.32-.25-1.32-.44s.19-.32.57-.47a15.21,15.21,0,0,0,1.92-.91c1.37-.79,2.05-1.47,2.05-2s-.63-1.18-1.89-2.1l1.06-1.59c.07-.11.13-.17.18-.17s.11.06.2.17c.72.85,1.26,1.27,1.63,1.27h.2Z" transform="translate(-37.3 -16.8)"/><path d="M297.2,64.64a3.79,3.79,0,0,1-.51,2,2,2,0,0,1-1.81,1.1h-.51V65.55h.43c.92,0,1.38-.14,1.38-.41s-.41-.74-1.24-1.52l1-1.55c.06-.08.12-.09.19,0a2.8,2.8,0,0,1,.87,1.39A4.19,4.19,0,0,1,297.2,64.64Zm-.38,5.18a.11.11,0,0,1,0,.18l-.87.87c-.06.07-.12.07-.19,0l-.88-.85c-.07-.08-.06-.15,0-.24l.81-.83a.14.14,0,0,1,.22,0Z" transform="translate(-37.3 -16.8)"/><path d="M300.6,59l-.67,8.18c0,.41-.14.61-.32.61s-.31-.26-.37-.77l-.8-6.85,1.89-1.38a.41.41,0,0,1,.2-.09C300.59,58.65,300.62,58.75,300.6,59Z" transform="translate(-37.3 -16.8)"/></svg>