<svg id="Layer_1" data-name="Layer 1" xmlns="http://www.w3.org/2000/svg" xmlns:xlink="http://www.w3.org/1999/xlink" viewBox="0 0 250 63.12"><defs><radialGradient id="radial-gradient" cx="-218.05" cy="209.52" r="0.43" gradientTransform="translate(919.33 -818.11) scale(4.04 4.18)" gradientUnits="userSpaceOnUse"><stop offset="0" stop-color="#fff"/><stop offset="0.67" stop-color="#fff" stop-opacity="0.1"/></radialGradient><radialGradient id="radial-gradient-2" cx="-215.11" cy="209.26" r="2.28" gradientTransform="translate(919.33 -818.11) scale(4.04 4.18)" gradientUnits="userSpaceOnUse"><stop offset="0.23" stop-color="#fff" stop-opacity="0.1"/><stop offset="0.36" stop-color="#fff" stop-opacity="0.12"/><stop offset="0.49" stop-color="#fff" stop-opacity="0.17"/><stop offset="0.63" stop-color="#fff" stop-opacity="0.25"/><stop offset="0.77" stop-color="#fff" stop-opacity="0.36"/><stop offset="0.81" stop-color="#fff" stop-opacity="0.4"/></radialGradient></defs><title>logo-2</title><g style="opacity:0.9500000000000001"><path d="M57.86,14.84S32,34.33,36.4,58.38,64.16,77.55,64.16,77.55s3.18-.7,3.27-2.26a3.74,3.74,0,0,0-.67-2.47s-3.1-4-5.05-6.12S46.28,50.56,49.23,41.21l-2.44-1.74s-6.4,8.74-1.51,22.67C45.28,62.14,29.3,45,57.86,14.84Z" transform="translate(-35.81 -14.84)" style="fill:#308ace"/><path d="M53.09,29.73S45.81,47.24,58,59.1s11,16,11,16,10.2-3.4,1.42-15.39S54.93,41.17,53.09,29.73Z" transform="translate(-35.81 -14.84)" style="fill:#e84646"/><path d="M52.1,32.83s.21,6.58,14.07,21.2c0,0-11.74-14.91-13.08-24.3l-.56,1.59-.43,1.51" transform="translate(-35.81 -14.84)" style="fill:#752323"/><path d="M46.79,39.47s-4,13.19,13.62,25.82c0,0-15.72,10.77-23.54-4.74a39.87,39.87,0,0,1-.29-14.39s-1.2,14.19,8.7,16C45.28,62.14,40.33,48.27,46.79,39.47Z" transform="translate(-35.81 -14.84)" style="fill:#42a1db"/><path d="M49.23,41.21l-2.44-1.74S42.66,52.84,60.41,65.29C60.41,65.29,46.61,51.43,49.23,41.21Z" transform="translate(-35.81 -14.84)" style="fill:#0f4d84"/><path d="M57.86,14.84S39.09,29,36.58,46.16c0,0-2,14.19,8.7,16C45.28,62.14,29.32,45.12,57.86,14.84Z" transform="translate(-35.81 -14.84)" style="fill:#073a68"/><path d="M38.71,63.55S34,59.39,36.58,46.16c0,0-1.11,10.85,4.42,14.22Z" transform="translate(-35.81 -14.84)" style="fill:#42a1db"/><path d="M36.61,51s.18,9.17,7.31,10.83A16.71,16.71,0,0,1,36.61,51Z" transform="translate(-35.81 -14.84)" style="fill:#87b4dd"/><path d="M38.23,55.61a12.6,12.6,0,0,0,2.46,3.47l-.59.61a7.88,7.88,0,0,1-2.4-3.62Z" transform="translate(-35.81 -14.84)" style="fill:url(#radial-gradient)"/><path d="M46.79,39.47s-4,13.92,13.62,25.82C60.41,65.29,46.74,55.43,46.79,39.47Z" transform="translate(-35.81 -14.84)" style="fill:url(#radial-gradient-2)"/><path d="M66.54,49.73l4.87,4.88S71.8,49.57,66.54,49.73Z" transform="translate(-35.81 -14.84)" style="fill:#770c0c"/><path d="M65.37,49.44l5.49,6.8a4.6,4.6,0,0,0-5.49-6.8Z" transform="translate(-35.81 -14.84)" style="fill:#073a68"/><path d="M75.8,60.7h0l.15-.19h0a1.5,1.5,0,0,0-.28-2c-.23-.26-.43-.55-.67-.79a1,1,0,0,1-.27-1.23,5.21,5.21,0,0,0,.38-2.89c-.28-1.13.34-1.73,1.08-2.37,1.11-1,1.14-1.41.35-2.68L76.16,48c-.74-1.07-.91-1.13-2.09-.66-.34.13-.67.28-1,.42a.73.73,0,0,1-.9-.17,5.43,5.43,0,0,0-3-1.53A1.91,1.91,0,0,1,67.6,44.6c-.13-.32-.26-.64-.41-1s-.21-.44-.45-.48a3.59,3.59,0,0,0-2.68.49c-.61.39-.16,1.1-.16,1.67,0,.06,0,.11,0,.17s0,.93-.31,1.14l1.24,2a5.89,5.89,0,0,1,2-.28l.27,0c3.07-.1,6,3.36,5.12,7.08,0,0,0,.07,0,.11h0A5.28,5.28,0,0,1,71.4,57l3.2,4.93.29-.3h0l.51-.51a.52.52,0,0,0,.21-.17l.13-.16Z" transform="translate(-35.81 -14.84)" style="fill:#073a68"/><path d="M83.32,53.93c.35,0,.55-.19.44-.62a1.83,1.83,0,0,1,0-.7c.08-.68-.18-1-.84-.9-.47.08-.6-.12-.61-.55a2.5,2.5,0,0,0-.14-.77c-.18-.49-.07-.77.46-.86s.57-.31.39-.76-.23-.71-.34-1.07-.26-.46-.56-.31c-.7.37-1,0-1.2-.64-.08-.33-.62-.74-.14-1,1.06-.52.44-1,.13-1.61s-.67-1-1.31-.37c-.28.27-.54.11-.7-.16s-1.06-.78-.69-1.23c.77-.92,0-1.17-.45-1.58-.23-.21-.51-.75-.8-.42-.75.89-1.25.19-1.84-.17-.35-.22-.52-.45-.25-.83s.08-.67-.3-.85a8,8,0,0,1-.83-.41c-.43-.27-.74-.2-.92.3-.1.26-.21.57-.53.36s-1.34,0-1.3-.68c.09-1.28-.77-1.09-1.43-1.26-.44-.1-.79,0-.78.57,0,.29-.1.55-.42.54A5.79,5.79,0,0,1,67,37.86c-.38-.1-.23-.54-.3-.83a.44.44,0,0,0-.49-.37l-1.18,0c-.48,0-.72.19-.53.76s-.12.74-.55.72-1.06.63-1.27-.22-.55-.66-1.05-.5a9.07,9.07,0,0,1-.89.26c-.42.09-.48.33-.3.7s.3.61.1.88l-.77.31,1.13,2.8,1.62-.7a12.33,12.33,0,0,1,7.24-.45c.55.13.72.36.49.9s-.47,1.18-.67,1.78c-.39,1.16-.38,1.15.71,1.59a5.74,5.74,0,0,1,1.28.66c.44.34.6.23.78-.25.31-.84.67-1.66,1-2.48.16-.4.32-.52.74-.22a12.84,12.84,0,0,1,3.47,3.61,12.68,12.68,0,0,1,2.18,6.92,1,1,0,0,1-.8.05,12.91,12.91,0,0,0-2.38-.42c-.55-.06-.76.18-.66.68a4.86,4.86,0,0,1-.21,2c-.13.55,0,.67.5.73.86.1,1.71.26,2.57.33.57,0,.79.18.61.86a11.13,11.13,0,0,1-1.94,4.11,5.45,5.45,0,0,0-.51.74,8.77,8.77,0,0,1-1.25,1.51s.72,1.87.36,2.71c0,0,0,.1.84-.66l.3-.31c.05,0,.1-.1.16-.16.33-.38.61-.45.91,0s.68.54,1,0a2.83,2.83,0,0,1,.51-.58c.4-.37.35-.7-.08-1s-.54-.6-.15-1a2.18,2.18,0,0,0,.43-.64c.28-.69.68-.85,1.27-.4.37.28.61.17.78-.25s.25-.58.39-.86.09-.58-.28-.75-.85-.14-.69-.56c.22-.59.05-1.45.9-1.69.33.08.78.35.9-.14a8.73,8.73,0,0,0,.29-1.25c0-.41-.08-.59-.49-.58a1,1,0,0,1-.56-.1,3.82,3.82,0,0,1,0-.9.88.88,0,0,0,0-.16v0h0c0-.12,0-.24,0-.36C82.59,54.25,82.65,53.87,83.32,53.93Z" transform="translate(-35.81 -14.84)" style="fill:#073a68"/><path d="M61,32.37h0c.51-.45,1-.91,1.53-1.37s.65-.41,1.08-.09c1.42,1,2.87,2,4.31,3s1.29.85,2.67-.05a1.11,1.11,0,0,0,.52-1.44,15.51,15.51,0,0,0-3-5.89c-.24-.29-.67-.61-.18-1,1-.8,0-1.21-.31-1.74-.36-.76-.85-.26-1.21,0a.69.69,0,0,1-1,0,17.66,17.66,0,0,0-1.69-1.12.89.89,0,0,0-1.27.08,5,5,0,0,1-1.26,1c-.69.34-.63.86-.46,1.43a4.06,4.06,0,0,0,.46,1.11c.23.35.24.6.09.83L56,31.57l1.55,3.68.57-.49c.16,0,.33-.22.46-.33l2.25-2Z" transform="translate(-35.81 -14.84)" style="fill:#073a68"/></g><path d="M110.4,38h4.3l5,15.52h-3.81l-2.07-7.86c-.45-1.55-.87-3.39-1.3-5h-.09c-.39,1.64-.81,3.46-1.25,5l-2.09,7.86H105.4Zm-1.7,9.09h7.64v2.73H108.7Z" transform="translate(-35.81 -14.84)" style="fill:#073a68"/><path d="M118.58,38h3.68l1.1,7.25c.21,1.63.44,3.27.65,4.91h.09c.31-1.64.63-3.3,1-4.91L126.76,38h3l1.71,7.25c.32,1.57.63,3.25.95,4.91h.1c.21-1.66.43-3.32.64-4.91l1.1-7.25h3.43l-2.82,15.52H130.4l-1.55-7c-.25-1.2-.47-2.44-.64-3.6h-.09c-.2,1.16-.4,2.4-.65,3.6l-1.5,7h-4.44Z" transform="translate(-35.81 -14.84)" style="fill:#073a68"/><path d="M143.64,38h10V41h-6.44v3.6h5.5v2.94h-5.5v6h-3.59Z" transform="translate(-35.81 -14.84)" style="fill:#073a68"/><path d="M155,46.36V38h3.59v8.69c0,3,1,4.09,2.76,4.09s2.82-1.06,2.82-4.09V38h3.46v8.33c0,5.21-2.17,7.48-6.28,7.48S155,51.57,155,46.36Z" transform="translate(-35.81 -14.84)" style="fill:#073a68"/><path d="M170.47,38h9.95V41h-6.36v3.12h5.42V47h-5.42v3.58h6.61v2.94h-10.2Z" transform="translate(-35.81 -14.84)" style="fill:#073a68"/><path d="M182.91,38h3.59V50.61h6.27v2.94h-9.86Z" transform="translate(-35.81 -14.84)" style="fill:#073a68"/><path d="M202.11,41h-4.37V38h12.34V41h-4.37V53.55h-3.6Z" transform="translate(-35.81 -14.84)" style="fill:#073a68"/><path d="M211.69,38h5.72c3.37,0,6.13,1.14,6.13,4.83s-2.76,5.1-6.13,5.1h-2.13v5.59h-3.59Zm5.43,7.15c1.89,0,2.9-.79,2.9-2.32s-1-2-2.9-2h-1.84v4.37ZM216.75,47l2.49-2.25,5.07,8.76h-4Z" transform="translate(-35.81 -14.84)" style="fill:#073a68"/><path d="M227.67,38H232l5,15.52h-3.8l-2.08-7.86c-.44-1.55-.87-3.39-1.29-5h-.1c-.38,1.64-.81,3.46-1.25,5l-2.09,7.86h-3.67ZM226,47.12h7.65v2.73H226Z" transform="translate(-35.81 -14.84)" style="fill:#073a68"/><path d="M237.4,38h4.49c4.85,0,8,2.36,8,7.69s-3.13,7.83-7.78,7.83H237.4Zm4.27,12.69c2.7,0,4.52-1.29,4.52-5s-1.82-4.87-4.52-4.87H241v9.87Z" transform="translate(-35.81 -14.84)" style="fill:#073a68"/><path d="M252,38h3.59V53.55H252Z" transform="translate(-35.81 -14.84)" style="fill:#073a68"/><path d="M257.69,38h3.68l4.15,7.72,1.57,3.41h.1c-.17-1.65-.46-3.82-.46-5.65V38h3.42V53.55h-3.68l-4.15-7.74-1.57-3.39h-.1c.17,1.71.46,3.79.46,5.62v5.51h-3.42Z" transform="translate(-35.81 -14.84)" style="fill:#073a68"/><path d="M272.35,45.88c0-5.15,3.51-8.14,7.75-8.14a6.93,6.93,0,0,1,5,2L283.22,42a4.17,4.17,0,0,0-3-1.24c-2.45,0-4.18,1.88-4.18,5s1.47,5.05,4.47,5.05a2.92,2.92,0,0,0,1.68-.47V47.66h-2.63V44.8h5.82V52a7.82,7.82,0,0,1-5.24,1.88C275.76,53.84,272.35,51.11,272.35,45.88Z" transform="translate(-35.81 -14.84)" style="fill:#073a68"/><path d="M111.76,64.89a3.47,3.47,0,0,1-.37,1.3c-.29.62-.57.92-.86.89l-2.3-.19h-.14a.45.45,0,0,0-.5.51v3.14a3.6,3.6,0,0,1-.16,1c-.13.5-.29.74-.48.74s-.22-.23-.24-.7l-.18-4.66a1.83,1.83,0,0,1,.35-1.24,1.37,1.37,0,0,1,1.17-.5,1.32,1.32,0,0,1-.18-.64,1.73,1.73,0,0,1,.46-.89c.34-.41.63-.61.89-.61a3.21,3.21,0,0,1,1.44.64C111.39,64.11,111.76,64.53,111.76,64.89Zm-1.07.28a3.29,3.29,0,0,0-1.76-.63.3.3,0,0,0-.34.33.57.57,0,0,0,.15.37c.36,0,1,.1,1.94.22h.1c.09,0,.14,0,.14-.06S110.84,65.27,110.69,65.17Z" transform="translate(-35.81 -14.84)" style="fill:#073a68"/><path d="M114.59,67.75a.85.85,0,0,1-.25.63.87.87,0,0,1-1.24,0,.85.85,0,0,1-.25-.63.81.81,0,0,1,.25-.62.87.87,0,0,1,1.49.62Z" transform="translate(-35.81 -14.84)" style="fill:#073a68"/><path d="M120.93,64.89a3.34,3.34,0,0,1-.38,1.3c-.28.62-.56.92-.85.89l-2.3-.19h-.14a.44.44,0,0,0-.5.51v3.14a4,4,0,0,1-.16,1c-.14.5-.3.74-.48.74s-.22-.23-.24-.7l-.18-4.66a1.83,1.83,0,0,1,.35-1.24,1.36,1.36,0,0,1,1.16-.5,1.43,1.43,0,0,1-.17-.64,1.65,1.65,0,0,1,.46-.89c.33-.41.63-.61.89-.61a3.21,3.21,0,0,1,1.44.64C120.56,64.11,120.93,64.53,120.93,64.89Zm-1.07.28a3.29,3.29,0,0,0-1.76-.63c-.23,0-.34.11-.34.33a.57.57,0,0,0,.15.37c.36,0,1,.1,1.93.22H120c.09,0,.14,0,.14-.06S120,65.27,119.86,65.17Z" transform="translate(-35.81 -14.84)" style="fill:#073a68"/><path d="M123.76,67.75a.87.87,0,0,1-.87.89.82.82,0,0,1-.62-.26.86.86,0,0,1-.26-.63.89.89,0,0,1,.88-.88.85.85,0,0,1,.62.26A.84.84,0,0,1,123.76,67.75Z" transform="translate(-35.81 -14.84)" style="fill:#073a68"/><path d="M129.74,65.68a3.9,3.9,0,0,1-.38,2,2,2,0,0,1-1.82.83h-1.21a1.4,1.4,0,0,1-1.09-.43,1.61,1.61,0,0,1-.39-1.14,5,5,0,0,1,.11-1c.06-.23.15-.35.29-.35s.28.18.34.53.56.55,1.48.55c1.41,0,2.12-.16,2.12-.47s-.35-.59-1.06-1.12a3.39,3.39,0,0,0-1.41-.81.54.54,0,0,0-.19.05.35.35,0,0,1-.14.06.21.21,0,0,1-.23-.24.49.49,0,0,1,0-.19l.56-1.42a.28.28,0,0,1,.28-.2c.33,0,.85.39,1.55,1.15A3.57,3.57,0,0,1,129.74,65.68Zm-2.49-4.53a.09.09,0,0,1,0,.15l-.75.76a.1.1,0,0,1-.16,0l-.76-.75c-.06-.06,0-.13,0-.2l.7-.72a.12.12,0,0,1,.19,0Z" transform="translate(-35.81 -14.84)" style="fill:#073a68"/><path d="M132.57,67.75a.88.88,0,0,1-1.5.63.89.89,0,0,1-.25-.63.88.88,0,1,1,1.75,0Z" transform="translate(-35.81 -14.84)" style="fill:#073a68"/><path d="M145.07,66.11a3.12,3.12,0,0,1-.38,1.59,1.32,1.32,0,0,1-1.19.79,1.06,1.06,0,0,1-1-.66.93.93,0,0,1-.85.66,2,2,0,0,1-.69-.13,3.7,3.7,0,0,1-1,2.8,3.87,3.87,0,0,1-2.83,1,4.5,4.5,0,0,1-2.36-.56,2.22,2.22,0,0,1-1.12-2,4,4,0,0,1,.6-2.25c.11-.15.22-.23.33-.23s.14.06.14.18a.7.7,0,0,1,0,.23,4,4,0,0,0-.22,1.17q0,1.65,2.7,1.65a7.31,7.31,0,0,0,1.94-.24c.87-.25,1.31-.63,1.31-1.14,0-.36-.5-1.08-1.5-2.15l.79-1.34c.07-.1.12-.15.16-.15s.1,0,.17.12a7.28,7.28,0,0,0,.71.85,1.28,1.28,0,0,0,.83.41c.21,0,.37-.2.48-.59s.21-.59.29-.59.2.1.24.3a.95.95,0,0,0,1.18.88c.38,0,.57-.16.57-.46a1.89,1.89,0,0,0-.57-1l.68-.93q.06-.09.12-.09c.05,0,.08,0,.11.1A4.63,4.63,0,0,1,145.07,66.11Zm-1.27-3.36s0,.09,0,.15l-.7.7a.09.09,0,0,1-.15,0l-.68-.69-.67.69a.09.09,0,0,1-.15,0l-.71-.7c-.06,0,0-.11,0-.18l.65-.66a.11.11,0,0,1,.18,0l.66.66.66-.67a.11.11,0,0,1,.17,0Zm-.74-1.4a.1.1,0,0,1,0,.16l-.69.69a.11.11,0,0,1-.15,0l-.7-.68c-.06-.06-.05-.12,0-.18l.65-.66a.1.1,0,0,1,.17,0Z" transform="translate(-35.81 -14.84)" style="fill:#073a68"/><path d="M158.37,64.93a4.13,4.13,0,0,1-.33,1.78A2.77,2.77,0,0,1,156.76,68a8.38,8.38,0,0,1-3.5.53,11.75,11.75,0,0,1-2-.13C149.71,68.11,149,67.3,149,66a4.13,4.13,0,0,1,.27-1.63c.09-.19.19-.29.3-.29s.18.08.18.23a1.23,1.23,0,0,1,0,.28,1.78,1.78,0,0,0,0,.28,1.47,1.47,0,0,0,.5,1.23,5.55,5.55,0,0,0,3.11.6,19.78,19.78,0,0,0,2.76-.17c1-.15,1.48-.37,1.48-.67s-.37-.64-1.13-1.2l.8-1.63c0-.09.07-.13.09-.13s.07,0,.14.07a2.12,2.12,0,0,1,.63.75A2.52,2.52,0,0,1,158.37,64.93ZM155,62.58a.1.1,0,0,1,0,.15l-.69.71a.11.11,0,0,1-.16,0l-.68-.68-.67.68a.1.1,0,0,1-.15,0l-.71-.7c-.05-.05-.05-.11,0-.18l.65-.67a.1.1,0,0,1,.17,0l.67.67.66-.67a.11.11,0,0,1,.18,0Z" transform="translate(-35.81 -14.84)" style="fill:#073a68"/><path d="M161.77,68.49h-.58c-1.07,0-1.6-.87-1.6-2.59,0-1.37-.05-2.82-.15-4.34l1.09-.77a.74.74,0,0,1,.27-.15c.06,0,.08.1.08.3v4.83c0,.58.25.87.73.87h.16Z" transform="translate(-35.81 -14.84)" style="fill:#073a68"/><path d="M165.35,65.28a3.4,3.4,0,0,1-.76,2.36,3,3,0,0,1-2.31.85h-.84V66.64h1.4a4.06,4.06,0,0,0,1-.13q.75-.2.75-.54c-.6.06-1,.1-1.26.1-1,0-1.47-.34-1.47-1a4,4,0,0,1,.36-1.59c.31-.71.71-1.07,1.21-1.07a1.6,1.6,0,0,1,1.3.69A3.49,3.49,0,0,1,165.35,65.28Zm-.33-4.4s0,.09,0,.15l-.69.71a.1.1,0,0,1-.16,0l-.67-.69-.68.68a.1.1,0,0,1-.15,0L162,61s0-.11,0-.18l.65-.67c.06-.06.11-.06.18,0l.66.67.66-.67a.11.11,0,0,1,.18,0Zm-.73,3.68a1.37,1.37,0,0,0-1.12-.73.52.52,0,0,0-.38.15.47.47,0,0,0-.16.37c0,.21.26.32.79.32A3.45,3.45,0,0,0,164.29,64.56Z" transform="translate(-35.81 -14.84)" style="fill:#073a68"/><path d="M170.62,66.46a7.64,7.64,0,0,1-.47,2.75,5.54,5.54,0,0,1-.93,1.62c-.3.35-.51.53-.65.53a14.94,14.94,0,0,1-2.21-.26c-.28,0-.42-.16-.42-.35s.11-.19.32-.27a7.58,7.58,0,0,0,.8-.31c1.66-.82,2.62-1.69,2.86-2.6a7.77,7.77,0,0,1-.8,0q-2.19,0-2.19-1.14a5.9,5.9,0,0,1,.41-1.74c.38-1.06.83-1.59,1.37-1.59s1.16.42,1.51,1.24A5.21,5.21,0,0,1,170.62,66.46Zm-1.05-.7A1.37,1.37,0,0,0,169,65a1.08,1.08,0,0,0-.55-.18c-.41,0-.61.19-.61.58s.41.37,1.24.37Z" transform="translate(-35.81 -14.84)" style="fill:#073a68"/><path d="M176.34,68.49H176a.34.34,0,0,1-.27-.12,4.79,4.79,0,0,1-1.27,3.39,1.6,1.6,0,0,1-.31.28.82.82,0,0,1-.4.07A8.84,8.84,0,0,1,172.4,72c-.76-.09-1.14-.22-1.14-.38s.16-.28.49-.41a12.93,12.93,0,0,0,1.65-.78c1.17-.68,1.76-1.26,1.76-1.75s-.54-1-1.63-1.8l.91-1.37c.07-.09.12-.14.15-.14s.1,0,.19.14c.61.73,1.07,1.09,1.4,1.09h.16Z" transform="translate(-35.81 -14.84)" style="fill:#073a68"/><path d="M184.37,68.49h-1.09a1.76,1.76,0,0,1-1.7-.73,3.2,3.2,0,0,1-.25-1.52,15,15,0,0,1-1.68,1.35,4.9,4.9,0,0,1-2.66.9h-1V66.64h.75a6.44,6.44,0,0,0,2.15-.37,16.05,16.05,0,0,0,1.71-.76,17,17,0,0,0-2.9-.67.75.75,0,0,0-.48.16l-.29.31a.41.41,0,0,1-.3.18c-.13,0-.19-.09-.19-.25a.74.74,0,0,1,0-.19,3.66,3.66,0,0,1,.55-1,1.63,1.63,0,0,1,1.21-.79,4.55,4.55,0,0,1,1.19.23c.72.22,1.22.35,1.5.41a25.15,25.15,0,0,0,2.66.43c.2,0,.29.07.29.16a.63.63,0,0,1-.09.23l-.63,1.11c-.35,0-.6,0-.77,0-.34,0-.51.09-.51.28,0,.37.45.55,1.36.55h1.12Z" transform="translate(-35.81 -14.84)" style="fill:#073a68"/><path d="M190.24,68.49h-.45a1.13,1.13,0,0,1-.76-.28,3.94,3.94,0,0,1-.45-.58c-.31.71-.71,1.07-1.18,1.07s-1.16-.44-1.71-1.32a2.36,2.36,0,0,1-.47.72,1.11,1.11,0,0,1-.8.39H184V66.64h.41a.72.72,0,0,0,.72-.34,1.58,1.58,0,0,0,.08-.59,2,2,0,0,1,.36-1.19,1.47,1.47,0,0,1,1.29-.63,1.49,1.49,0,0,1,1.19.72l.79,1.32c.29.47.58.71.87.71h.5Zm-2.38-1.27c.17,0,.26-.12.26-.37a2.57,2.57,0,0,0-.33-1.09c-.29-.58-.61-.87-1-.87s-.38.17-.38.5a1.82,1.82,0,0,0,.3,1C187.09,66.93,187.46,67.22,187.86,67.22Z" transform="translate(-35.81 -14.84)" style="fill:#073a68"/><path d="M192.56,62.66a.26.26,0,0,1,0,.1c0,.07-.07.1-.2.1a1.69,1.69,0,0,1-.34,0v3.51a2.47,2.47,0,0,1-.43,1.46,1.5,1.5,0,0,1-1.28.7h-.43V66.64h.45c.5,0,.76-.18.76-.56a11.85,11.85,0,0,0-.18-1.57,20.73,20.73,0,0,0-.53-2.51l1-1.12c.08-.09.14-.14.2-.14s.1.07.16.19Z" transform="translate(-35.81 -14.84)" style="fill:#073a68"/><path d="M195.47,61l-.57,7c0,.35-.12.52-.28.52s-.27-.22-.32-.66L193.62,62l1.62-1.19a.36.36,0,0,1,.17-.08C195.46,60.71,195.48,60.8,195.47,61Z" transform="translate(-35.81 -14.84)" style="fill:#073a68"/><path d="M203.67,65.85a2.78,2.78,0,0,1-.67,1.86,2.25,2.25,0,0,1-1.75.82c-1.26,0-1.88-.57-1.88-1.71a5.58,5.58,0,0,1,.55-2.3c.34-.77.63-1.15.85-1.15a3.31,3.31,0,0,1,1.69.75A2.29,2.29,0,0,1,203.67,65.85Zm-1.31-4.06-.27.45a7.45,7.45,0,0,0-1.94,1c-.08-.19-.09-.32-.05-.38a4.67,4.67,0,0,1,.59-.49c-.33-.19-.5-.39-.5-.61a1.08,1.08,0,0,1,.39-.73,1.1,1.1,0,0,1,.74-.39.69.69,0,0,1,.56.28.51.51,0,0,1,.12.24c0,.06-.06.09-.16.09l-.24,0a1.29,1.29,0,0,0-.25,0c-.4,0-.6.08-.6.26s.07.15.22.27a1.68,1.68,0,0,0,.32.2l.88-.29h.13c.07,0,.1,0,.1.07A.41.41,0,0,1,202.36,61.79Zm.66,4.42c0-.14-.37-.41-1.11-.8a4.44,4.44,0,0,0-1.39-.57c-.1,0-.19.12-.28.37a1.78,1.78,0,0,0-.11.54c0,.63.45,1,1.35,1S203,66.53,203,66.21Z" transform="translate(-35.81 -14.84)" style="fill:#073a68"/><path d="M208.88,66.72a5.05,5.05,0,0,1-1.36,3.57,1.47,1.47,0,0,1-.31.29,1,1,0,0,1-.4.06,8.52,8.52,0,0,1-1.36-.07c-.76-.08-1.13-.21-1.13-.38s.16-.27.48-.4a12.93,12.93,0,0,0,1.65-.78c1.18-.68,1.77-1.26,1.77-1.75s-.55-1-1.63-1.8l.87-1.34c0-.08.11-.13.17-.13a.47.47,0,0,1,.24.13,3,3,0,0,1,.65.95A4,4,0,0,1,208.88,66.72Z" transform="translate(-35.81 -14.84)" style="fill:#073a68"/><path d="M212.3,68.49h-.59c-1.06,0-1.59-.87-1.59-2.59,0-1.37-.05-2.82-.15-4.34l1.09-.77a.61.61,0,0,1,.27-.15s.08.1.08.3v4.83q0,.87.72.87h.17Z" transform="translate(-35.81 -14.84)" style="fill:#073a68"/><path d="M220.33,68.49h-1.1a1.77,1.77,0,0,1-1.7-.73,3.36,3.36,0,0,1-.24-1.52,14.09,14.09,0,0,1-1.69,1.35,4.87,4.87,0,0,1-2.65.9h-1V66.64h.75a6.5,6.5,0,0,0,2.16-.37,17,17,0,0,0,1.71-.76,17.19,17.19,0,0,0-2.9-.67.8.8,0,0,0-.49.16l-.28.31a.45.45,0,0,1-.3.18c-.13,0-.2-.09-.2-.25a.81.81,0,0,1,0-.19,3.4,3.4,0,0,1,.55-1,1.62,1.62,0,0,1,1.21-.79,4.55,4.55,0,0,1,1.19.23c.72.22,1.22.35,1.5.41a24.74,24.74,0,0,0,2.66.43c.19,0,.29.07.29.16a.63.63,0,0,1-.09.23l-.64,1.11c-.34,0-.59,0-.76,0-.34,0-.51.09-.51.28,0,.37.45.55,1.35.55h1.13ZM217,70.11c.05,0,.05.1,0,.16l-.75.76a.1.1,0,0,1-.16,0l-.76-.75a.13.13,0,0,1,0-.2l.7-.71c.06-.07.12-.06.19,0Z" transform="translate(-35.81 -14.84)" style="fill:#073a68"/><path d="M223.67,68.49h-.45a1.44,1.44,0,0,1-1.4-1.18c-.23.78-.67,1.18-1.31,1.18H220V66.64h.33c.64,0,1.05-.42,1.23-1.27,0-.28.15-.41.3-.41s.23.13.26.41c.1.85.47,1.27,1.11,1.27h.45Zm-.3-5.41c0,.05,0,.09,0,.15l-.69.7a.09.09,0,0,1-.15,0l-.68-.68-.67.68a.09.09,0,0,1-.15,0l-.71-.69c-.06-.06-.05-.12,0-.19l.65-.66a.11.11,0,0,1,.18,0l.66.66.65-.66a.11.11,0,0,1,.18,0Z" transform="translate(-35.81 -14.84)" style="fill:#073a68"/><path d="M226,62.66a.26.26,0,0,1,0,.1c0,.07-.07.1-.2.1a1.61,1.61,0,0,1-.34,0v3.51a2.54,2.54,0,0,1-.43,1.46,1.51,1.51,0,0,1-1.29.7h-.42V66.64h.45c.5,0,.75-.18.75-.56a11.33,11.33,0,0,0-.17-1.57,20.73,20.73,0,0,0-.53-2.51l1-1.12c.08-.09.14-.14.19-.14s.11.07.17.19Z" transform="translate(-35.81 -14.84)" style="fill:#073a68"/><path d="M236.43,68.49H236a1.37,1.37,0,0,1-1.18-.71,8.07,8.07,0,0,1-.54-1.26,4.79,4.79,0,0,1-.88,1.24,2.87,2.87,0,0,1-2,.76,1.66,1.66,0,0,1-1.05-.32,1.19,1.19,0,0,1-.43-1,3.64,3.64,0,0,1,.31-1.55c.09-.2.19-.3.31-.3s.2.06.2.2a1.7,1.7,0,0,1,0,.26,1.58,1.58,0,0,0,0,.26c0,.44.38.67,1.13.67a3.17,3.17,0,0,0,2.27-.81l-.93-2.53.83-.92c.06-.07.11-.1.14-.1s.07,0,.1.13l1,3c.24.76.58,1.13,1,1.13h.26Z" transform="translate(-35.81 -14.84)" style="fill:#073a68"/><path d="M239.77,68.49h-.45a1.45,1.45,0,0,1-1.4-1.18c-.22.78-.66,1.18-1.31,1.18h-.51V66.64h.33c.64,0,1-.42,1.22-1.27.06-.28.16-.41.3-.41s.24.13.27.41c.1.85.46,1.27,1.1,1.27h.45Zm-.33,1.82c.05,0,0,.1,0,.15l-.69.7a.12.12,0,0,1-.08,0,.1.1,0,0,1-.08,0l-.67-.68-.68.68s-.09,0-.15,0l-.71-.69c-.06-.06-.05-.12,0-.19l.64-.66a.11.11,0,0,1,.19,0l.65.66.66-.66a.12.12,0,0,1,.19,0Z" transform="translate(-35.81 -14.84)" style="fill:#073a68"/><path d="M247.28,65.36l-.51,1a.32.32,0,0,1-.25.21h-.59a3.29,3.29,0,0,0-1.39.51c-.94.53-1.54.84-1.78,1a5.69,5.69,0,0,1-2.28.51h-1V66.64h1a8.4,8.4,0,0,0,1.87-.18,15.63,15.63,0,0,0,1.6-.54q-.37-.11-1.47-.54a4,4,0,0,0-1.1-.33.8.8,0,0,0-.55.16l-.31.34a.37.37,0,0,1-.29.13c-.14,0-.2-.08-.2-.24a.55.55,0,0,1,0-.17,3.07,3.07,0,0,1,.56-1,1.58,1.58,0,0,1,1.2-.74,11.88,11.88,0,0,1,2.14.67,11.78,11.78,0,0,0,3.19.77q.27,0,.27.15A.43.43,0,0,1,247.28,65.36Z" transform="translate(-35.81 -14.84)" style="fill:#073a68"/><path d="M252.63,66.46a7.64,7.64,0,0,1-.48,2.75,5.76,5.76,0,0,1-.92,1.62c-.31.35-.52.53-.65.53a14.89,14.89,0,0,1-2.22-.26c-.28,0-.42-.16-.42-.35s.11-.19.32-.27a7.58,7.58,0,0,0,.8-.31c1.66-.82,2.62-1.69,2.86-2.6a7.64,7.64,0,0,1-.8,0c-1.46,0-2.18-.38-2.18-1.14a5.81,5.81,0,0,1,.4-1.74c.38-1.06.83-1.59,1.37-1.59s1.16.42,1.51,1.24A5.22,5.22,0,0,1,252.63,66.46Zm-1.06-.7A1.37,1.37,0,0,0,251,65a1.08,1.08,0,0,0-.55-.18c-.41,0-.61.19-.61.58s.41.37,1.24.37Z" transform="translate(-35.81 -14.84)" style="fill:#073a68"/><path d="M262.8,68.49h-.33a.44.44,0,0,1-.33-.13,3.12,3.12,0,0,1,0,.54c0,1-.38,1.51-1.15,1.51a1.72,1.72,0,0,1-1.6-1.15,3.89,3.89,0,0,1-.39-1.71,4.2,4.2,0,0,0-1,.13.67.67,0,0,0-.54.7l.07,2.51a2.76,2.76,0,0,1-.1.77c-.1.38-.24.56-.42.56s-.29-.26-.33-.79l-.23-3.17c0-.11,0-.2,0-.28a2,2,0,0,1,.89-1.85A2.9,2.9,0,0,1,259,65.7q0-.72.15-.72a1.47,1.47,0,0,1,.48.3c.36.27.64.46.83.58a6.79,6.79,0,0,0,1,.56,2.81,2.81,0,0,0,1.1.22h.21Zm-1.33,0c0-.13-.16-.29-.49-.48a9.8,9.8,0,0,1-1.33-.94,2.5,2.5,0,0,0,.29,1.22,1.06,1.06,0,0,0,1,.68.71.71,0,0,0,.4-.13A.44.44,0,0,0,261.47,68.45Z" transform="translate(-35.81 -14.84)" style="fill:#073a68"/><path d="M266.14,68.49h-.45a1.44,1.44,0,0,1-1.4-1.18c-.23.78-.66,1.18-1.31,1.18h-.51V66.64h.33c.64,0,1.05-.42,1.22-1.27.06-.28.16-.41.3-.41s.23.13.27.41c.09.85.46,1.27,1.1,1.27h.45Zm-.33,1.82a.1.1,0,0,1,0,.15l-.7.7a.09.09,0,0,1-.07,0,.09.09,0,0,1-.08,0l-.67-.68-.68.68a.09.09,0,0,1-.15,0l-.71-.69c-.06-.06-.05-.12,0-.19l.64-.66a.1.1,0,0,1,.18,0l.66.66.66-.66a.11.11,0,0,1,.18,0Z" transform="translate(-35.81 -14.84)" style="fill:#073a68"/><path d="M272.13,66.88a1.91,1.91,0,0,1-.32,1,1.21,1.21,0,0,1-1.07.68,4.37,4.37,0,0,1-2.1-.87,4.34,4.34,0,0,1-2.26.84h-.51V66.63h.95a.94.94,0,0,1-.59-.85,1.23,1.23,0,0,1,.39-.76,2.5,2.5,0,0,1,.69-.56l-.54-.21.64-1.58q.09-.21.24-.21a.48.48,0,0,1,.24.08,17.91,17.91,0,0,1,2.46,1.69C271.53,65.23,272.13,66.11,272.13,66.88Zm-3-1c0-.2-.14-.39-.43-.59A1.32,1.32,0,0,0,268,65a1,1,0,0,0-.43.11c-.18.09-.27.2-.27.32s.19.33.59.57a2.17,2.17,0,0,0,.71.35.57.57,0,0,0,.37-.14A.47.47,0,0,0,269.16,65.85Zm2.14,1.25c0-.29-.46-.72-1.4-1.28a1.16,1.16,0,0,1-.13.49,1.22,1.22,0,0,1-.27.43,3.78,3.78,0,0,0,1.53.58C271.21,67.32,271.3,67.25,271.3,67.1Z" transform="translate(-35.81 -14.84)" style="fill:#073a68"/><path d="M275.05,61l-.57,7c0,.35-.12.52-.28.52s-.27-.22-.32-.66L273.2,62l1.62-1.19a.36.36,0,0,1,.17-.08C275,60.71,275.06,60.8,275.05,61Z" transform="translate(-35.81 -14.84)" style="fill:#073a68"/><path d="M280.78,68.49h-.34a.34.34,0,0,1-.27-.12,4.74,4.74,0,0,1-1.27,3.39,1.36,1.36,0,0,1-.3.28.86.86,0,0,1-.41.07,8.89,8.89,0,0,1-1.36-.07c-.76-.09-1.13-.22-1.13-.38s.16-.28.48-.41a12.93,12.93,0,0,0,1.65-.78c1.18-.68,1.76-1.26,1.76-1.75s-.54-1-1.62-1.8l.91-1.37c.06-.09.11-.14.15-.14s.1,0,.18.14c.61.73,1.08,1.09,1.4,1.09h.17Z" transform="translate(-35.81 -14.84)" style="fill:#073a68"/><path d="M282.88,65.86a3.28,3.28,0,0,1-.43,1.68,1.72,1.72,0,0,1-1.56.95h-.44V66.64h.37c.79,0,1.19-.12,1.19-.35s-.36-.64-1.07-1.3l.86-1.34a.1.1,0,0,1,.17,0,2.47,2.47,0,0,1,.74,1.2A3.64,3.64,0,0,1,282.88,65.86Zm-.32,4.45a.09.09,0,0,1,0,.15l-.75.75a.09.09,0,0,1-.16,0l-.76-.73c-.06-.07-.05-.13,0-.2l.69-.72a.13.13,0,0,1,.2,0Z" transform="translate(-35.81 -14.84)" style="fill:#073a68"/><path d="M285.81,61l-.58,7c0,.35-.12.52-.28.52s-.26-.22-.31-.66L284,62l1.62-1.19a.4.4,0,0,1,.17-.08C285.8,60.71,285.82,60.8,285.81,61Z" transform="translate(-35.81 -14.84)" style="fill:#073a68"/></svg>