<svg id="Layer_1" data-name="Layer 1" xmlns="http://www.w3.org/2000/svg" xmlns:xlink="http://www.w3.org/1999/xlink" viewBox="0 0 152 38.37"><defs><radialGradient id="radial-gradient" cx="-208.96" cy="210.62" r="0.26" gradientTransform="translate(919.33 -818.11) scale(4.04 4.18)" gradientUnits="userSpaceOnUse"><stop offset="0" stop-color="#fff"/><stop offset="0.67" stop-color="#fff" stop-opacity="0.1"/></radialGradient><radialGradient id="radial-gradient-2" cx="-207.18" cy="210.46" r="1.39" gradientTransform="translate(919.33 -818.11) scale(4.04 4.18)" gradientUnits="userSpaceOnUse"><stop offset="0.23" stop-color="#fff" stop-opacity="0.1"/><stop offset="0.36" stop-color="#fff" stop-opacity="0.12"/><stop offset="0.49" stop-color="#fff" stop-opacity="0.17"/><stop offset="0.63" stop-color="#fff" stop-opacity="0.25"/><stop offset="0.77" stop-color="#fff" stop-opacity="0.36"/><stop offset="0.81" stop-color="#fff" stop-opacity="0.4"/></radialGradient></defs><title>logo-1</title><g style="opacity:0.9500000000000001"><path d="M87.22,36.21s-15.74,11.85-13,26.47S91,74.34,91,74.34,93,73.91,93,73a2.27,2.27,0,0,0-.4-1.51S90.74,69,89.56,67.74,80.17,57.93,82,52.24l-1.48-1.05S76.59,56.5,79.57,65C79.57,65,69.85,54.53,87.22,36.21Z" transform="translate(-73.81 -36.21)" style="fill:#308ace"/><path d="M84.32,45.26s-4.43,10.65,3,17.86S94,72.86,94,72.86s6.2-2.07.86-9.36S85.44,52.22,84.32,45.26Z" transform="translate(-73.81 -36.21)" style="fill:#e84646"/><path d="M83.71,47.15s.14,4,8.56,12.89c0,0-7.14-9.07-8-14.78l-.34,1-.27.92" transform="translate(-73.81 -36.21)" style="fill:#752323"/><path d="M80.49,51.19s-2.41,8,8.28,15.69c0,0-9.56,6.55-14.31-2.88a24.13,24.13,0,0,1-.18-8.75s-.73,8.63,5.29,9.72C79.57,65,76.56,56.53,80.49,51.19Z" transform="translate(-73.81 -36.21)" style="fill:#42a1db"/><path d="M82,52.24l-1.48-1.05S78,59.32,88.77,66.88C88.77,66.88,80.38,58.46,82,52.24Z" transform="translate(-73.81 -36.21)" style="fill:#0f4d84"/><path d="M87.22,36.21s-11.42,8.61-12.94,19c0,0-1.19,8.63,5.29,9.72C79.57,65,69.87,54.62,87.22,36.21Z" transform="translate(-73.81 -36.21)" style="fill:#073a68"/><path d="M75.57,65.83s-2.86-2.53-1.29-10.58c0,0-.67,6.6,2.69,8.65Z" transform="translate(-73.81 -36.21)" style="fill:#42a1db"/><path d="M74.3,58.19s.11,5.58,4.44,6.59A10.19,10.19,0,0,1,74.3,58.19Z" transform="translate(-73.81 -36.21)" style="fill:#87b4dd"/><path d="M75.28,61a7.73,7.73,0,0,0,1.49,2.11l-.35.37A4.77,4.77,0,0,1,75,61.28Z" transform="translate(-73.81 -36.21)" style="fill:url(#radial-gradient)"/><path d="M80.49,51.19S78,59.65,88.77,66.88C88.77,66.88,80.45,60.89,80.49,51.19Z" transform="translate(-73.81 -36.21)" style="fill:url(#radial-gradient-2)"/><path d="M92.49,57.43l3,3A2.68,2.68,0,0,0,92.49,57.43Z" transform="translate(-73.81 -36.21)" style="fill:#770c0c"/><path d="M91.78,57.25l3.34,4.13a2.79,2.79,0,0,0-3.34-4.13Z" transform="translate(-73.81 -36.21)" style="fill:#073a68"/><path d="M98.12,64.1h0l.09-.11h0c.27-.43.21-.77-.17-1.23-.14-.16-.26-.33-.41-.47a.63.63,0,0,1-.16-.75,3.13,3.13,0,0,0,.23-1.76c-.17-.69.21-1.05.65-1.44.68-.58.7-.86.22-1.63-.08-.12-.15-.24-.23-.35-.45-.66-.55-.69-1.27-.41l-.61.26a.45.45,0,0,1-.55-.1,3.23,3.23,0,0,0-1.81-.93,1.16,1.16,0,0,1-1-.87c-.08-.19-.16-.39-.25-.58s-.13-.26-.27-.29a2.2,2.2,0,0,0-1.63.29c-.37.24-.1.67-.1,1v.11s0,.56-.18.69l.75,1.23a3.76,3.76,0,0,1,1.2-.17h.17a3.45,3.45,0,0,1,3.11,4.31s0,0,0,.07h0a3.34,3.34,0,0,1-.48.82l1.94,3,.18-.18h0l.32-.32a.21.21,0,0,0,.12-.1l.08-.1Z" transform="translate(-73.81 -36.21)" style="fill:#073a68"/><path d="M102.69,60c.22,0,.34-.12.27-.38a1.19,1.19,0,0,1,0-.42c.05-.42-.11-.62-.52-.55s-.36-.07-.36-.34a1.51,1.51,0,0,0-.09-.47c-.11-.3,0-.46.28-.52s.35-.19.24-.46-.14-.43-.21-.65-.16-.28-.34-.19c-.43.22-.62,0-.73-.39,0-.2-.38-.45-.08-.59.64-.32.27-.63.07-1s-.4-.59-.79-.22c-.17.16-.33.06-.43-.1s-.64-.47-.42-.75c.47-.56,0-.71-.27-1s-.31-.46-.49-.25c-.46.54-.76.11-1.11-.11s-.32-.27-.16-.5,0-.41-.18-.52a3.44,3.44,0,0,1-.51-.25c-.26-.16-.44-.12-.56.19,0,.15-.12.34-.31.22s-.82,0-.79-.42c0-.78-.47-.67-.88-.76s-.47,0-.47.34c0,.18-.06.33-.26.33a3.56,3.56,0,0,1-.8-.07c-.23-.07-.14-.33-.18-.51a.28.28,0,0,0-.3-.23l-.71,0c-.3,0-.45.11-.33.45a.31.31,0,0,1-.33.45c-.27,0-.65.38-.77-.14s-.34-.4-.64-.3a5.44,5.44,0,0,1-.54.15c-.26.06-.3.21-.19.43s.19.37.06.53l-.47.19L89.08,53l1-.43a7.5,7.5,0,0,1,4.4-.27c.34.07.44.22.3.55s-.29.71-.41,1.08c-.24.7-.23.7.43,1a3.23,3.23,0,0,1,.78.41c.27.2.37.13.47-.16.19-.51.42-1,.62-1.51.1-.24.19-.31.45-.13a8.17,8.17,0,0,1,3.44,6.4.56.56,0,0,1-.49,0,8,8,0,0,0-1.45-.25c-.34,0-.46.11-.4.41a3.07,3.07,0,0,1-.13,1.25c-.07.33,0,.41.3.44.53.06,1.05.16,1.57.2.34,0,.48.11.37.52A6.64,6.64,0,0,1,99.14,65a4,4,0,0,0-.31.45,6.1,6.1,0,0,1-.76.93A3.21,3.21,0,0,1,98.29,68s0,.06.51-.4L99,67.4l.1-.1c.2-.23.37-.27.55,0s.41.33.63,0a1.73,1.73,0,0,1,.31-.35c.24-.23.21-.43,0-.59s-.33-.36-.09-.61a1.48,1.48,0,0,0,.26-.39c.17-.42.41-.52.77-.25s.37.11.47-.15.16-.35.24-.52.06-.35-.16-.46-.52-.08-.43-.34,0-.88.55-1c.2,0,.48.22.55-.08a6.46,6.46,0,0,0,.18-.76c0-.25-.06-.36-.3-.36a.59.59,0,0,1-.35-.06,3.17,3.17,0,0,1,0-.54.36.36,0,0,0,0-.1v0h0v-.22C102.25,60.17,102.29,59.94,102.69,60Z" transform="translate(-73.81 -36.21)" style="fill:#073a68"/><path d="M89.11,46.87h0l.94-.83c.23-.21.39-.25.65-.06.87.63,1.75,1.24,2.62,1.84s.79.52,1.62,0a.66.66,0,0,0,.32-.87,9.55,9.55,0,0,0-1.79-3.59c-.15-.17-.41-.37-.11-.61.6-.49,0-.74-.19-1.06s-.52-.16-.74,0a.41.41,0,0,1-.62,0,10.27,10.27,0,0,0-1-.69A.54.54,0,0,0,90,41a3.13,3.13,0,0,1-.77.61c-.42.21-.38.53-.28.88a2.87,2.87,0,0,0,.28.67.44.44,0,0,1,.06.5l-3.19,2.69L87,48.62l.35-.3c.1,0,.2-.13.28-.2L89,46.93Z" transform="translate(-73.81 -36.21)" style="fill:#073a68"/></g><path d="M119.16,50.31h2.61l3,9.44H122.5L121.23,55c-.27-.95-.53-2.06-.78-3h-.06c-.24,1-.49,2.1-.76,3l-1.27,4.78h-2.24Zm-1,5.53h4.65V57.5h-4.65Z" transform="translate(-73.81 -36.21)" style="fill:#073a68"/><path d="M124.13,50.31h2.24l.67,4.41c.13,1,.27,2,.39,3h.06c.19-1,.39-2,.58-3l1-4.41H131l1,4.41c.19,1,.39,2,.58,3h.06c.13-1,.26-2,.39-3l.67-4.41h2.09l-1.72,9.44h-2.75l-.94-4.29c-.16-.73-.28-1.49-.39-2.19h-.06c-.11.7-.24,1.46-.39,2.19l-.92,4.29h-2.69Z" transform="translate(-73.81 -36.21)" style="fill:#073a68"/><path d="M139.37,50.31h6.1V52.1h-3.92v2.18h3.35v1.79h-3.35v3.68h-2.18Z" transform="translate(-73.81 -36.21)" style="fill:#073a68"/><path d="M146.28,55.37V50.31h2.19v5.28c0,1.85.59,2.49,1.68,2.49s1.71-.64,1.71-2.49V50.31H154v5.06c0,3.17-1.31,4.55-3.81,4.55S146.28,58.54,146.28,55.37Z" transform="translate(-73.81 -36.21)" style="fill:#073a68"/><path d="M155.68,50.31h6.06V52.1h-3.87V54h3.29v1.79h-3.29V58h4v1.79h-6.2Z" transform="translate(-73.81 -36.21)" style="fill:#073a68"/><path d="M163.24,50.31h2.19V58h3.81v1.79h-6Z" transform="translate(-73.81 -36.21)" style="fill:#073a68"/><path d="M174.92,52.1h-2.66V50.31h7.51V52.1h-2.66v7.65h-2.19Z" transform="translate(-73.81 -36.21)" style="fill:#073a68"/><path d="M180.74,50.31h3.48c2.05,0,3.73.69,3.73,2.94s-1.68,3.1-3.73,3.1h-1.29v3.4h-2.19Zm3.31,4.34c1.14,0,1.76-.48,1.76-1.4S185.19,52,184.05,52h-1.12v2.65Zm-.23,1.14,1.51-1.37,3.09,5.33H186Z" transform="translate(-73.81 -36.21)" style="fill:#073a68"/><path d="M190.46,50.31h2.61l3,9.44H193.8L192.53,55c-.27-.95-.52-2.06-.78-3h-.06c-.23,1-.49,2.1-.76,3l-1.27,4.78h-2.23Zm-1,5.53h4.65V57.5h-4.65Z" transform="translate(-73.81 -36.21)" style="fill:#073a68"/><path d="M196.37,50.31h2.74c2.95,0,4.85,1.43,4.85,4.68s-1.9,4.76-4.73,4.76h-2.86ZM199,58c1.64,0,2.75-.79,2.75-3s-1.11-3-2.75-3h-.41v6Z" transform="translate(-73.81 -36.21)" style="fill:#073a68"/><path d="M205.27,50.31h2.19v9.44h-2.19Z" transform="translate(-73.81 -36.21)" style="fill:#073a68"/><path d="M208.71,50.31H211L213.47,55l1,2.07h.06a33.07,33.07,0,0,1-.28-3.43V50.31h2.08v9.44h-2.24L211.53,55l-1-2.06h0c.1,1,.27,2.3.27,3.42v3.35h-2.08Z" transform="translate(-73.81 -36.21)" style="fill:#073a68"/><path d="M217.63,55.08a4.61,4.61,0,0,1,4.71-4.95,4.25,4.25,0,0,1,3,1.23l-1.15,1.37a2.55,2.55,0,0,0-1.83-.75c-1.49,0-2.54,1.14-2.54,3s.9,3.07,2.72,3.07a1.8,1.8,0,0,0,1-.28V56.17H222V54.42h3.54v4.36a4.77,4.77,0,0,1-3.19,1.14A4.47,4.47,0,0,1,217.63,55.08Z" transform="translate(-73.81 -36.21)" style="fill:#073a68"/><path d="M120,66.64a2.07,2.07,0,0,1-.23.79c-.17.38-.35.56-.52.54l-1.4-.11h-.08c-.21,0-.31.1-.31.3v1.91a2.49,2.49,0,0,1-.09.6c-.09.3-.18.45-.3.45s-.13-.15-.14-.43l-.11-2.83a1.16,1.16,0,0,1,.21-.76.87.87,0,0,1,.71-.3.82.82,0,0,1-.11-.39,1.06,1.06,0,0,1,.28-.54c.21-.25.39-.37.55-.37a2,2,0,0,1,.87.38C119.76,66.17,120,66.42,120,66.64Zm-.65.17a2,2,0,0,0-1.07-.38c-.14,0-.21.06-.21.2a.37.37,0,0,0,.09.23c.22,0,.61,0,1.18.13h.06c.06,0,.09,0,.09,0S119.43,66.87,119.34,66.81Z" transform="translate(-73.81 -36.21)" style="fill:#073a68"/><path d="M121.71,68.38a.52.52,0,0,1-.15.38.51.51,0,0,1-.38.16.49.49,0,0,1-.38-.16.56.56,0,0,1,0-.76.53.53,0,0,1,.38-.16.55.55,0,0,1,.38.16A.54.54,0,0,1,121.71,68.38Z" transform="translate(-73.81 -36.21)" style="fill:#073a68"/><path d="M125.56,66.64a1.9,1.9,0,0,1-.23.79q-.26.57-.51.54l-1.4-.11h-.09a.27.27,0,0,0-.3.3v1.91a2.57,2.57,0,0,1-.1.6c-.08.3-.18.45-.29.45s-.14-.15-.15-.43l-.11-2.83a1.16,1.16,0,0,1,.21-.76.89.89,0,0,1,.71-.3.81.81,0,0,1-.1-.39,1,1,0,0,1,.28-.54c.2-.25.38-.37.54-.37a2,2,0,0,1,.87.38C125.34,66.17,125.56,66.42,125.56,66.64Zm-.65.17a2,2,0,0,0-1.07-.38.18.18,0,0,0-.2.2.37.37,0,0,0,.09.23c.22,0,.61,0,1.17.13H125s.08,0,.08,0S125,66.87,124.91,66.81Z" transform="translate(-73.81 -36.21)" style="fill:#073a68"/><path d="M127.29,68.38a.53.53,0,0,1-.16.38.49.49,0,0,1-.37.16.48.48,0,0,1-.38-.16.53.53,0,0,1,0-.76.51.51,0,0,1,.38-.16.52.52,0,0,1,.37.16A.55.55,0,0,1,127.29,68.38Z" transform="translate(-73.81 -36.21)" style="fill:#073a68"/><path d="M130.92,67.12a2.37,2.37,0,0,1-.23,1.2,1.22,1.22,0,0,1-1.11.51h-.74a.87.87,0,0,1-.66-.26,1,1,0,0,1-.23-.69,2.62,2.62,0,0,1,.07-.62c0-.14.09-.21.17-.21s.17.11.21.32.34.34.9.34c.86,0,1.28-.1,1.28-.29s-.21-.36-.64-.68a2.1,2.1,0,0,0-.86-.5.3.3,0,0,0-.11,0l-.09,0c-.09,0-.13,0-.13-.15a.23.23,0,0,1,0-.11l.34-.86a.17.17,0,0,1,.17-.12c.21,0,.52.23.95.7A2.18,2.18,0,0,1,130.92,67.12Zm-1.51-2.75s0,.06,0,.09l-.45.46s-.07,0-.1,0l-.46-.45s0-.08,0-.12l.42-.44a.08.08,0,0,1,.12,0Z" transform="translate(-73.81 -36.21)" style="fill:#073a68"/><path d="M132.64,68.38a.52.52,0,0,1-.15.38.51.51,0,0,1-.38.16.49.49,0,0,1-.38-.16.56.56,0,0,1,0-.76.53.53,0,0,1,.38-.16.55.55,0,0,1,.38.16A.54.54,0,0,1,132.64,68.38Z" transform="translate(-73.81 -36.21)" style="fill:#073a68"/><path d="M140.24,67.38a2,2,0,0,1-.23,1,.81.81,0,0,1-.73.48.64.64,0,0,1-.59-.4.59.59,0,0,1-.52.4,1.16,1.16,0,0,1-.42-.08,2.28,2.28,0,0,1-.61,1.7,2.38,2.38,0,0,1-1.72.59A2.74,2.74,0,0,1,134,70.7a1.36,1.36,0,0,1-.68-1.23,2.4,2.4,0,0,1,.37-1.37.26.26,0,0,1,.2-.14c.06,0,.08,0,.08.11a.36.36,0,0,1,0,.14,2.24,2.24,0,0,0-.13.71c0,.67.54,1,1.63,1a4.4,4.4,0,0,0,1.19-.15c.53-.15.79-.38.79-.7s-.3-.65-.91-1.3L137,67c0-.07.07-.1.1-.1s.06,0,.1.07a5,5,0,0,0,.43.52.76.76,0,0,0,.51.25c.12,0,.22-.12.29-.36s.13-.36.18-.36.12.06.14.19a.68.68,0,0,0,.14.34.72.72,0,0,0,.58.19c.23,0,.35-.09.35-.28a1.16,1.16,0,0,0-.35-.62l.41-.57s0,0,.08,0a.07.07,0,0,1,.06.06A2.83,2.83,0,0,1,140.24,67.38Zm-.77-2s0,.06,0,.09l-.42.42s-.07,0-.1,0l-.41-.41-.4.41a.08.08,0,0,1-.1,0l-.43-.43s0-.07,0-.11l.4-.4s.07,0,.11,0l.4.4.4-.4a.06.06,0,0,1,.1,0Zm-.45-.85a.06.06,0,0,1,0,.09l-.42.42a.06.06,0,0,1-.09,0l-.43-.41s0-.07,0-.11l.39-.4a.07.07,0,0,1,.11,0Z" transform="translate(-73.81 -36.21)" style="fill:#073a68"/><path d="M148.32,66.66a2.44,2.44,0,0,1-.2,1.09,1.67,1.67,0,0,1-.77.76,5.17,5.17,0,0,1-2.13.32,7.68,7.68,0,0,1-1.23-.08c-.93-.15-1.39-.64-1.39-1.46a2.34,2.34,0,0,1,.17-1c0-.11.11-.17.17-.17s.11,0,.11.14a.62.62,0,0,1,0,.17,1.49,1.49,0,0,0,0,.17.85.85,0,0,0,.31.74,3.31,3.31,0,0,0,1.89.37,11.66,11.66,0,0,0,1.68-.1c.6-.1.9-.23.9-.41s-.23-.39-.69-.73l.48-1s0-.08.06-.08a.18.18,0,0,1,.08,0,1.41,1.41,0,0,1,.39.46A1.56,1.56,0,0,1,148.32,66.66Zm-2-1.42s0,.06,0,.09l-.42.43s-.06,0-.09,0l-.42-.42-.41.41s-.06,0-.09,0l-.43-.43s0-.07,0-.11l.4-.4a.06.06,0,0,1,.1,0l.41.4.4-.4s.07,0,.11,0Z" transform="translate(-73.81 -36.21)" style="fill:#073a68"/><path d="M150.4,68.83H150c-.65,0-1-.53-1-1.58,0-.83,0-1.71-.09-2.63l.66-.47a.44.44,0,0,1,.16-.09s.06.06.06.18v2.94c0,.35.14.53.43.53h.11Z" transform="translate(-73.81 -36.21)" style="fill:#073a68"/><path d="M152.57,66.88a2.06,2.06,0,0,1-.46,1.43,1.86,1.86,0,0,1-1.4.52h-.51V67.71H151a2.32,2.32,0,0,0,.62-.09c.3-.07.45-.18.45-.32-.36,0-.61.06-.76.06-.6,0-.9-.21-.9-.61a2.56,2.56,0,0,1,.22-1c.19-.43.44-.65.74-.65a1,1,0,0,1,.79.42A2.1,2.1,0,0,1,152.57,66.88Zm-.2-2.68a.06.06,0,0,1,0,.09l-.43.43s-.06,0-.09,0l-.41-.41-.41.41a.06.06,0,0,1-.09,0l-.43-.42s0-.07,0-.11l.39-.41a.08.08,0,0,1,.11,0l.4.41.4-.41a.08.08,0,0,1,.11,0Zm-.44,2.24a.84.84,0,0,0-.69-.44.33.33,0,0,0-.23.09.3.3,0,0,0-.1.22c0,.13.17.2.49.2A2.33,2.33,0,0,0,151.93,66.44Z" transform="translate(-73.81 -36.21)" style="fill:#073a68"/><path d="M155.78,67.59a4.68,4.68,0,0,1-.29,1.67,3.61,3.61,0,0,1-.56,1c-.19.22-.32.32-.4.32a9.3,9.3,0,0,1-1.35-.15c-.17,0-.25-.1-.25-.22s.06-.11.19-.16a4.64,4.64,0,0,0,.49-.19c1-.5,1.59-1,1.74-1.58a4.27,4.27,0,0,1-.49,0c-.88,0-1.33-.23-1.33-.69a3.74,3.74,0,0,1,.25-1.06c.23-.64.51-1,.83-1s.71.25.92.75A3,3,0,0,1,155.78,67.59Zm-.65-.42a.74.74,0,0,0-.34-.45.61.61,0,0,0-.33-.12c-.25,0-.37.12-.37.35s.25.23.75.23Z" transform="translate(-73.81 -36.21)" style="fill:#073a68"/><path d="M159.25,68.83h-.2a.22.22,0,0,1-.16-.07,2.87,2.87,0,0,1-.78,2.06,1.21,1.21,0,0,1-.18.17.51.51,0,0,1-.25,0,6.82,6.82,0,0,1-.83,0c-.46-.06-.69-.13-.69-.24s.1-.16.3-.24a7.87,7.87,0,0,0,1-.48c.72-.41,1.07-.76,1.07-1.06s-.33-.62-1-1.1l.56-.83q.06-.09.09-.09s.06,0,.11.09c.37.44.66.67.85.67h.1Z" transform="translate(-73.81 -36.21)" style="fill:#073a68"/><path d="M164.13,68.83h-.66a1.08,1.08,0,0,1-1-.44,2.06,2.06,0,0,1-.15-.93,9.13,9.13,0,0,1-1,.82,2.94,2.94,0,0,1-1.61.55h-.6V67.71h.46a4,4,0,0,0,1.3-.23,8.61,8.61,0,0,0,1-.47,10.2,10.2,0,0,0-1.76-.4.43.43,0,0,0-.29.1,1.85,1.85,0,0,0-.18.19.24.24,0,0,1-.18.1c-.08,0-.12,0-.12-.14a.27.27,0,0,1,0-.12,2.14,2.14,0,0,1,.33-.6,1,1,0,0,1,.74-.48,2.85,2.85,0,0,1,.72.14c.43.13.74.22.91.25a15.88,15.88,0,0,0,1.62.26c.12,0,.18,0,.18.1a.35.35,0,0,1-.06.14l-.39.67-.46,0c-.21,0-.31,0-.31.17s.27.34.82.34h.68Z" transform="translate(-73.81 -36.21)" style="fill:#073a68"/><path d="M167.7,68.83h-.27a.69.69,0,0,1-.46-.17,1.51,1.51,0,0,1-.27-.36q-.28.66-.72.66c-.36,0-.71-.27-1-.8a1.23,1.23,0,0,1-.28.43.66.66,0,0,1-.48.24h-.24V67.71h.25a.43.43,0,0,0,.43-.21.8.8,0,0,0,0-.36,1.23,1.23,0,0,1,.22-.72.9.9,0,0,1,.79-.39.91.91,0,0,1,.72.44l.48.8c.18.29.35.44.53.44h.3Zm-1.44-.77c.1,0,.15-.08.15-.23a1.6,1.6,0,0,0-.19-.66c-.18-.35-.38-.53-.6-.53s-.23.1-.23.31a1.11,1.11,0,0,0,.18.57Q165.9,68.06,166.26,68.06Z" transform="translate(-73.81 -36.21)" style="fill:#073a68"/><path d="M169.11,65.28a.11.11,0,0,1,0,.07s0,.06-.12.06l-.21,0v2.14a1.45,1.45,0,0,1-.26.88.88.88,0,0,1-.78.43h-.26V67.71h.28c.3,0,.46-.12.46-.34a7.66,7.66,0,0,0-.11-1c-.09-.57-.2-1.07-.32-1.53l.63-.68c.05,0,.09-.08.12-.08s.06,0,.1.11Z" transform="translate(-73.81 -36.21)" style="fill:#073a68"/><path d="M170.88,64.25l-.35,4.28c0,.21-.07.32-.16.32s-.17-.13-.2-.4l-.41-3.58,1-.72a.29.29,0,0,1,.1-.05S170.89,64.15,170.88,64.25Z" transform="translate(-73.81 -36.21)" style="fill:#073a68"/><path d="M175.87,67.22a1.69,1.69,0,0,1-.41,1.13,1.33,1.33,0,0,1-1.06.5c-.77,0-1.15-.34-1.15-1a3.37,3.37,0,0,1,.34-1.4c.21-.46.38-.69.52-.69a2,2,0,0,1,1,.45C175.62,66.52,175.87,66.87,175.87,67.22Zm-.8-2.46-.16.27a4.47,4.47,0,0,0-1.18.58c0-.12-.06-.19,0-.23a2.61,2.61,0,0,1,.36-.29c-.21-.12-.31-.24-.31-.38a.65.65,0,0,1,.24-.44.67.67,0,0,1,.45-.24.42.42,0,0,1,.34.17.31.31,0,0,1,.07.15s0,.05-.09.05h-.3c-.25,0-.37.05-.37.15s0,.1.14.17l.19.12.54-.17H175s.06,0,.06,0A.16.16,0,0,1,175.07,64.76Zm.4,2.68c0-.08-.22-.25-.67-.49a2.6,2.6,0,0,0-.85-.34c-.06,0-.11.07-.16.22a.93.93,0,0,0-.07.33c0,.39.27.58.82.58S175.47,67.64,175.47,67.44Z" transform="translate(-73.81 -36.21)" style="fill:#073a68"/><path d="M179,67.75a3.1,3.1,0,0,1-.82,2.18,1.15,1.15,0,0,1-.19.17.65.65,0,0,1-.24,0,6.42,6.42,0,0,1-.83,0c-.46-.06-.69-.13-.69-.24s.1-.16.3-.24a7.87,7.87,0,0,0,1-.48c.72-.41,1.07-.76,1.07-1.06s-.33-.62-1-1.1l.53-.8c0-.06.07-.09.11-.09a.26.26,0,0,1,.14.09,1.63,1.63,0,0,1,.4.57A2.49,2.49,0,0,1,179,67.75Z" transform="translate(-73.81 -36.21)" style="fill:#073a68"/><path d="M181.12,68.83h-.36c-.65,0-1-.53-1-1.58,0-.83,0-1.71-.09-2.63l.66-.47a.39.39,0,0,1,.17-.09s.05.06.05.18v2.94c0,.35.14.53.43.53h.11Z" transform="translate(-73.81 -36.21)" style="fill:#073a68"/><path d="M186,68.83h-.67a1.08,1.08,0,0,1-1-.44,2.06,2.06,0,0,1-.15-.93,8.37,8.37,0,0,1-1,.82,2.94,2.94,0,0,1-1.62.55h-.6V67.71h.46a4,4,0,0,0,1.31-.23,10.29,10.29,0,0,0,1-.47,10.41,10.41,0,0,0-1.76-.4.45.45,0,0,0-.3.1,1.31,1.31,0,0,0-.17.19.27.27,0,0,1-.19.1c-.08,0-.11,0-.11-.14a.25.25,0,0,1,0-.12,2.14,2.14,0,0,1,.33-.6,1,1,0,0,1,.74-.48,2.85,2.85,0,0,1,.72.14c.44.13.74.22.91.25a15.88,15.88,0,0,0,1.62.26c.12,0,.18,0,.18.1a.35.35,0,0,1-.06.14l-.38.67-.47,0c-.21,0-.31,0-.31.17s.27.34.82.34H186Zm-2,1a.06.06,0,0,1,0,.09l-.46.46s-.06,0-.1,0l-.46-.45s0-.08,0-.12l.42-.44a.08.08,0,0,1,.12,0Z" transform="translate(-73.81 -36.21)" style="fill:#073a68"/><path d="M188,68.83h-.28a.88.88,0,0,1-.85-.72c-.14.48-.4.72-.79.72h-.32V67.71h.2q.58,0,.75-.78c0-.17.09-.25.18-.25s.14.08.16.25c.06.52.28.78.67.78H188Zm-.18-3.29s0,.06,0,.09l-.42.43a.06.06,0,0,1-.09,0l-.41-.42-.41.42a.06.06,0,0,1-.09,0l-.43-.43s0-.06,0-.11l.39-.4a.07.07,0,0,1,.11,0l.4.4.4-.4a.07.07,0,0,1,.11,0Z" transform="translate(-73.81 -36.21)" style="fill:#073a68"/><path d="M189.44,65.28a.25.25,0,0,1,0,.07s0,.06-.12.06l-.21,0v2.14a1.52,1.52,0,0,1-.26.88.91.91,0,0,1-.78.43h-.26V67.71h.27c.31,0,.46-.12.46-.34a6.1,6.1,0,0,0-.11-1,11.39,11.39,0,0,0-.32-1.53l.63-.68c.05,0,.09-.08.12-.08s.07,0,.1.11Z" transform="translate(-73.81 -36.21)" style="fill:#073a68"/><path d="M195.79,68.83h-.28a.83.83,0,0,1-.72-.43,5.13,5.13,0,0,1-.33-.77,3.19,3.19,0,0,1-.53.76,1.79,1.79,0,0,1-1.24.46,1,1,0,0,1-.64-.2.71.71,0,0,1-.26-.6,2.37,2.37,0,0,1,.18-1c.06-.12.12-.18.2-.18a.11.11,0,0,1,.12.12,1.37,1.37,0,0,1,0,.16,1.37,1.37,0,0,0,0,.16c0,.27.23.4.69.4a1.93,1.93,0,0,0,1.38-.49l-.57-1.54.51-.56s.06-.06.08-.06,0,0,.06.08L195,67q.23.69.63.69h.16Z" transform="translate(-73.81 -36.21)" style="fill:#073a68"/><path d="M197.82,68.83h-.27a.86.86,0,0,1-.85-.72c-.14.48-.41.72-.8.72h-.31V67.71h.2c.39,0,.63-.26.74-.78,0-.17.1-.25.18-.25s.15.08.16.25c.06.52.29.78.68.78h.27Zm-.2,1.11s0,0,0,.09l-.42.42s0,0-.05,0l0,0-.41-.41-.4.41s-.06,0-.1,0l-.43-.42s0-.07,0-.11l.39-.41a.09.09,0,0,1,.12,0l.4.41.4-.41s.07,0,.11,0Z" transform="translate(-73.81 -36.21)" style="fill:#073a68"/><path d="M202.39,66.93l-.31.58a.25.25,0,0,1-.16.12h-.36a1.93,1.93,0,0,0-.84.31l-1.08.58a3.61,3.61,0,0,1-1.39.31h-.63V67.71h.59a4.75,4.75,0,0,0,1.14-.12,7.39,7.39,0,0,0,1-.32c-.15,0-.45-.15-.89-.33a2.57,2.57,0,0,0-.67-.2.49.49,0,0,0-.34.1l-.18.2a.22.22,0,0,1-.18.08c-.08,0-.12-.05-.12-.14a.22.22,0,0,1,0-.11,1.84,1.84,0,0,1,.34-.59,1,1,0,0,1,.73-.44,7.29,7.29,0,0,1,1.3.4,6.8,6.8,0,0,0,1.94.47c.11,0,.16,0,.16.09A.27.27,0,0,1,202.39,66.93Z" transform="translate(-73.81 -36.21)" style="fill:#073a68"/><path d="M205.63,67.59a4.68,4.68,0,0,1-.28,1.67,3.39,3.39,0,0,1-.57,1c-.18.22-.31.32-.39.32a9.3,9.3,0,0,1-1.35-.15c-.17,0-.26-.1-.26-.22s.07-.11.2-.16l.49-.19c1-.5,1.59-1,1.74-1.58a4.27,4.27,0,0,1-.49,0c-.89,0-1.33-.23-1.33-.69a3.42,3.42,0,0,1,.25-1.06c.23-.64.5-1,.83-1s.7.25.92.75A3.22,3.22,0,0,1,205.63,67.59Zm-.64-.42a.74.74,0,0,0-.34-.45.61.61,0,0,0-.33-.12c-.25,0-.37.12-.37.35s.25.23.75.23Z" transform="translate(-73.81 -36.21)" style="fill:#073a68"/><path d="M211.82,68.83h-.2a.28.28,0,0,1-.2-.08,1.69,1.69,0,0,1,0,.33c0,.61-.24.92-.71.92a1.06,1.06,0,0,1-1-.7,2.37,2.37,0,0,1-.24-1,3.17,3.17,0,0,0-.59.07.42.42,0,0,0-.33.43l0,1.53a1.35,1.35,0,0,1-.06.47c-.06.23-.15.34-.25.34s-.18-.16-.2-.49L208,68.69a1.09,1.09,0,0,1,0-.17,1.25,1.25,0,0,1,.54-1.13,1.83,1.83,0,0,1,1-.26c0-.29,0-.44.09-.44a1,1,0,0,1,.29.18,5.26,5.26,0,0,0,.51.36,3.79,3.79,0,0,0,.61.34,1.66,1.66,0,0,0,.66.14h.13Zm-.81,0c0-.08-.1-.17-.29-.29a5.28,5.28,0,0,1-.82-.57,1.53,1.53,0,0,0,.18.74.64.64,0,0,0,.58.41.45.45,0,0,0,.25-.07A.27.27,0,0,0,211,68.8Z" transform="translate(-73.81 -36.21)" style="fill:#073a68"/><path d="M213.85,68.83h-.27a.87.87,0,0,1-.85-.72c-.14.48-.41.72-.8.72h-.31V67.71h.2c.39,0,.64-.26.74-.78,0-.17.1-.25.19-.25s.14.08.16.25c.05.52.28.78.67.78h.27Zm-.2,1.11s0,0,0,.09l-.42.42s0,0-.05,0a.05.05,0,0,1,0,0l-.41-.41-.41.41a.06.06,0,0,1-.09,0l-.43-.42s0-.07,0-.11l.4-.41a.08.08,0,0,1,.11,0l.4.41.4-.41a.07.07,0,0,1,.11,0Z" transform="translate(-73.81 -36.21)" style="fill:#073a68"/><path d="M217.49,67.85a1.1,1.1,0,0,1-.19.58.73.73,0,0,1-.65.42,2.67,2.67,0,0,1-1.28-.53,2.31,2.31,0,0,1-.65.35,1.93,1.93,0,0,1-.72.16h-.32V67.7h.59a.57.57,0,0,1-.36-.52.76.76,0,0,1,.24-.46,1.58,1.58,0,0,1,.41-.34l-.32-.13.38-1c0-.09.09-.13.15-.13a.39.39,0,0,1,.14,0,10.62,10.62,0,0,1,1.5,1C217.13,66.85,217.49,67.38,217.49,67.85Zm-1.8-.63c0-.12-.09-.24-.26-.35a.74.74,0,0,0-.43-.17.62.62,0,0,0-.26.06c-.11.06-.17.12-.17.2s.12.19.36.34a1.33,1.33,0,0,0,.43.21.32.32,0,0,0,.23-.08A.3.3,0,0,0,215.69,67.22ZM217,68c0-.17-.28-.43-.85-.77a.84.84,0,0,1-.08.3.57.57,0,0,1-.17.25,2.29,2.29,0,0,0,.94.36C216.94,68.12,217,68.08,217,68Z" transform="translate(-73.81 -36.21)" style="fill:#073a68"/><path d="M219.27,64.25l-.35,4.28c0,.21-.07.32-.17.32s-.16-.13-.19-.4l-.42-3.58,1-.72a.23.23,0,0,1,.1-.05S219.28,64.15,219.27,64.25Z" transform="translate(-73.81 -36.21)" style="fill:#073a68"/><path d="M222.75,68.83h-.2a.26.26,0,0,1-.17-.07,2.9,2.9,0,0,1-.77,2.06.85.85,0,0,1-.19.17.49.49,0,0,1-.24,0,6.74,6.74,0,0,1-.83,0c-.46-.06-.69-.13-.69-.24s.1-.16.3-.24a7.87,7.87,0,0,0,1-.48c.71-.41,1.07-.76,1.07-1.06s-.33-.62-1-1.1l.56-.83q.06-.09.09-.09s.06,0,.11.09c.37.44.65.67.85.67h.1Z" transform="translate(-73.81 -36.21)" style="fill:#073a68"/><path d="M224,67.23a2,2,0,0,1-.26,1,1,1,0,0,1-1,.58h-.27V67.71h.23c.48,0,.72-.08.72-.22s-.22-.39-.65-.79l.52-.81s.07,0,.1,0a1.47,1.47,0,0,1,.45.73A2.09,2.09,0,0,1,224,67.23Zm-.2,2.7s0,.06,0,.1l-.46.46s-.06,0-.1,0l-.46-.45a.09.09,0,0,1,0-.13l.43-.43a.07.07,0,0,1,.11,0Z" transform="translate(-73.81 -36.21)" style="fill:#073a68"/><path d="M225.81,64.25l-.35,4.28c0,.21-.08.32-.17.32s-.16-.13-.19-.4l-.42-3.58,1-.72a.19.19,0,0,1,.1-.05S225.82,64.15,225.81,64.25Z" transform="translate(-73.81 -36.21)" style="fill:#073a68"/></svg>